<mxfile host="app.diagrams.net" agent="Mozilla/5.0 (Windows NT 10.0; Win64; x64) AppleWebKit/537.36 (KHTML, like Gecko) Chrome/131.0.0.0 Safari/537.36" version="24.7.13">
  <diagram id="C5RBs43oDa-KdzZeNtuy" name="Page-1">
    <mxGraphModel dx="1460" dy="3032" grid="1" gridSize="10" guides="1" tooltips="1" connect="1" arrows="1" fold="1" page="1" pageScale="1" pageWidth="1169" pageHeight="827" background="#ffffff" math="0" shadow="0">
      <root>
        <mxCell id="WIyWlLk6GJQsqaUBKTNV-0" />
        <mxCell id="WIyWlLk6GJQsqaUBKTNV-1" parent="WIyWlLk6GJQsqaUBKTNV-0" />
        <mxCell id="TotBF1mNxbMJLCwTNOgZ-4" value="" style="group" vertex="1" connectable="0" parent="WIyWlLk6GJQsqaUBKTNV-1">
          <mxGeometry x="10" y="250" width="120" height="110" as="geometry" />
        </mxCell>
        <mxCell id="TotBF1mNxbMJLCwTNOgZ-0" value="" style="shape=cylinder3;whiteSpace=wrap;html=1;boundedLbl=1;backgroundOutline=1;size=13;" vertex="1" parent="TotBF1mNxbMJLCwTNOgZ-4">
          <mxGeometry x="20.000000000000004" width="80.00000000000001" height="70" as="geometry" />
        </mxCell>
        <mxCell id="TotBF1mNxbMJLCwTNOgZ-2" value="Exchange Rate Data&lt;div style=&quot;text-wrap-mode: nowrap;&quot;&gt;&lt;span style=&quot;text-wrap-mode: wrap;&quot;&gt;Gold Prices Data&lt;/span&gt;&lt;/div&gt;" style="text;html=1;align=center;verticalAlign=middle;whiteSpace=wrap;rounded=0;" vertex="1" parent="TotBF1mNxbMJLCwTNOgZ-4">
          <mxGeometry y="80" width="120" height="30" as="geometry" />
        </mxCell>
        <mxCell id="TotBF1mNxbMJLCwTNOgZ-7" value="1_gold_prices&lt;div&gt;_feature_backfill.ipynb&lt;/div&gt;" style="rounded=1;whiteSpace=wrap;html=1;" vertex="1" parent="WIyWlLk6GJQsqaUBKTNV-1">
          <mxGeometry x="140" y="250" width="160" height="70" as="geometry" />
        </mxCell>
        <mxCell id="TotBF1mNxbMJLCwTNOgZ-9" value="3_gold_prices&lt;div&gt;_feature_pipeline.ipynb&lt;/div&gt;" style="rounded=1;whiteSpace=wrap;html=1;" vertex="1" parent="WIyWlLk6GJQsqaUBKTNV-1">
          <mxGeometry x="520" y="250" width="160" height="70" as="geometry" />
        </mxCell>
        <mxCell id="TotBF1mNxbMJLCwTNOgZ-10" value="4_gold_prices&lt;div&gt;_training_pipeline.ipynb&lt;/div&gt;" style="rounded=1;whiteSpace=wrap;html=1;" vertex="1" parent="WIyWlLk6GJQsqaUBKTNV-1">
          <mxGeometry x="710" y="250" width="160" height="70" as="geometry" />
        </mxCell>
        <mxCell id="TotBF1mNxbMJLCwTNOgZ-11" value="2_exchange_rates_forecast&lt;div&gt;_training_pipeline.ipynb&lt;/div&gt;" style="rounded=1;whiteSpace=wrap;html=1;" vertex="1" parent="WIyWlLk6GJQsqaUBKTNV-1">
          <mxGeometry x="330" y="250" width="160" height="70" as="geometry" />
        </mxCell>
        <mxCell id="TotBF1mNxbMJLCwTNOgZ-14" value="5_gold_prices&lt;div&gt;_batch_inference.ipynb&lt;/div&gt;" style="rounded=1;whiteSpace=wrap;html=1;" vertex="1" parent="WIyWlLk6GJQsqaUBKTNV-1">
          <mxGeometry x="900" y="250" width="160" height="70" as="geometry" />
        </mxCell>
        <mxCell id="TotBF1mNxbMJLCwTNOgZ-17" style="edgeStyle=orthogonalEdgeStyle;rounded=0;orthogonalLoop=1;jettySize=auto;html=1;entryX=0;entryY=0.5;entryDx=0;entryDy=0;" edge="1" parent="WIyWlLk6GJQsqaUBKTNV-1" source="TotBF1mNxbMJLCwTNOgZ-0" target="TotBF1mNxbMJLCwTNOgZ-7">
          <mxGeometry relative="1" as="geometry" />
        </mxCell>
        <mxCell id="TotBF1mNxbMJLCwTNOgZ-37" value="" style="edgeStyle=orthogonalEdgeStyle;rounded=0;orthogonalLoop=1;jettySize=auto;html=1;shape=flexArrow;" edge="1" parent="WIyWlLk6GJQsqaUBKTNV-1" source="TotBF1mNxbMJLCwTNOgZ-21" target="TotBF1mNxbMJLCwTNOgZ-34">
          <mxGeometry relative="1" as="geometry" />
        </mxCell>
        <mxCell id="TotBF1mNxbMJLCwTNOgZ-21" value="HOPSWORKS" style="rounded=1;whiteSpace=wrap;html=1;" vertex="1" parent="WIyWlLk6GJQsqaUBKTNV-1">
          <mxGeometry x="150" y="440" width="910" height="130" as="geometry" />
        </mxCell>
        <mxCell id="TotBF1mNxbMJLCwTNOgZ-22" value="" style="shape=cylinder3;whiteSpace=wrap;html=1;boundedLbl=1;backgroundOutline=1;size=13;" vertex="1" parent="WIyWlLk6GJQsqaUBKTNV-1">
          <mxGeometry x="410" y="470" width="80.00000000000001" height="70" as="geometry" />
        </mxCell>
        <mxCell id="TotBF1mNxbMJLCwTNOgZ-23" style="edgeStyle=orthogonalEdgeStyle;rounded=0;orthogonalLoop=1;jettySize=auto;html=1;" edge="1" parent="WIyWlLk6GJQsqaUBKTNV-1" source="TotBF1mNxbMJLCwTNOgZ-7">
          <mxGeometry relative="1" as="geometry">
            <mxPoint x="220" y="440" as="targetPoint" />
          </mxGeometry>
        </mxCell>
        <mxCell id="TotBF1mNxbMJLCwTNOgZ-24" style="edgeStyle=orthogonalEdgeStyle;rounded=0;orthogonalLoop=1;jettySize=auto;html=1;exitX=0.25;exitY=1;exitDx=0;exitDy=0;entryX=0.242;entryY=0;entryDx=0;entryDy=0;entryPerimeter=0;" edge="1" parent="WIyWlLk6GJQsqaUBKTNV-1" source="TotBF1mNxbMJLCwTNOgZ-11" target="TotBF1mNxbMJLCwTNOgZ-21">
          <mxGeometry relative="1" as="geometry">
            <mxPoint x="400" y="330" as="sourcePoint" />
            <mxPoint x="420" y="410" as="targetPoint" />
          </mxGeometry>
        </mxCell>
        <mxCell id="TotBF1mNxbMJLCwTNOgZ-25" style="edgeStyle=orthogonalEdgeStyle;rounded=0;orthogonalLoop=1;jettySize=auto;html=1;exitX=0.75;exitY=1;exitDx=0;exitDy=0;endArrow=none;endFill=0;startArrow=classic;startFill=1;" edge="1" parent="WIyWlLk6GJQsqaUBKTNV-1" source="TotBF1mNxbMJLCwTNOgZ-11">
          <mxGeometry relative="1" as="geometry">
            <mxPoint x="449" y="440" as="targetPoint" />
          </mxGeometry>
        </mxCell>
        <mxCell id="TotBF1mNxbMJLCwTNOgZ-26" style="edgeStyle=orthogonalEdgeStyle;rounded=0;orthogonalLoop=1;jettySize=auto;html=1;entryX=0.495;entryY=0;entryDx=0;entryDy=0;entryPerimeter=0;" edge="1" parent="WIyWlLk6GJQsqaUBKTNV-1" source="TotBF1mNxbMJLCwTNOgZ-9" target="TotBF1mNxbMJLCwTNOgZ-21">
          <mxGeometry relative="1" as="geometry" />
        </mxCell>
        <mxCell id="TotBF1mNxbMJLCwTNOgZ-27" style="edgeStyle=orthogonalEdgeStyle;rounded=0;orthogonalLoop=1;jettySize=auto;html=1;exitX=0.25;exitY=1;exitDx=0;exitDy=0;entryX=0.659;entryY=0;entryDx=0;entryDy=0;entryPerimeter=0;" edge="1" parent="WIyWlLk6GJQsqaUBKTNV-1" source="TotBF1mNxbMJLCwTNOgZ-10" target="TotBF1mNxbMJLCwTNOgZ-21">
          <mxGeometry relative="1" as="geometry" />
        </mxCell>
        <mxCell id="TotBF1mNxbMJLCwTNOgZ-28" style="edgeStyle=orthogonalEdgeStyle;rounded=0;orthogonalLoop=1;jettySize=auto;html=1;exitX=0.75;exitY=1;exitDx=0;exitDy=0;entryX=0.747;entryY=0;entryDx=0;entryDy=0;entryPerimeter=0;endArrow=none;endFill=0;startArrow=classic;startFill=1;" edge="1" parent="WIyWlLk6GJQsqaUBKTNV-1" source="TotBF1mNxbMJLCwTNOgZ-10" target="TotBF1mNxbMJLCwTNOgZ-21">
          <mxGeometry relative="1" as="geometry" />
        </mxCell>
        <mxCell id="TotBF1mNxbMJLCwTNOgZ-30" style="edgeStyle=orthogonalEdgeStyle;rounded=0;orthogonalLoop=1;jettySize=auto;html=1;exitX=0.5;exitY=1;exitDx=0;exitDy=0;entryX=0.913;entryY=-0.02;entryDx=0;entryDy=0;entryPerimeter=0;" edge="1" parent="WIyWlLk6GJQsqaUBKTNV-1">
          <mxGeometry relative="1" as="geometry">
            <mxPoint x="979.59" y="322.6" as="sourcePoint" />
            <mxPoint x="980.4200000000002" y="440" as="targetPoint" />
          </mxGeometry>
        </mxCell>
        <mxCell id="TotBF1mNxbMJLCwTNOgZ-31" value="" style="shape=image;verticalLabelPosition=bottom;labelBackgroundColor=default;verticalAlign=top;aspect=fixed;imageAspect=0;image=data:image/png,iVBORw0KGgoAAAANSUhEUgAAATcAAAA1CAIAAACr/zvaAAAgAElEQVR4nO1913NcR3rv133SJExGHuRARII5iqSWS2q5Wq28dml5be++3Ac/+H9y+WV9a6vuvZYl8VqrwCUpkWAUCZIAEYk0wACDMIMJmHRCf/ehhbOHgwEEUKJXKs+vVKrBOX06f/nrJkFEKKOMMn7EoH/tDpRRRhnfgTKVllHGjx1lKi2jjB87ylRaRhk/dogAAIAACAAIFAEBkAAgEGs5AkAAAQCQIBAg3xYDJADk1bJllFHGDwkRGRAAJDlkVCO2HNUMyCno0BkgJQZhFEBGIiERURWAIToMQoAySvIECTAbkDKVllHGG4QIDAABRVAJZhjJqNJ8VH0ZScRiGa2gyRRbQ4GORleVV3YrMhKVICOABBgBCYBCmUDLKOMNgzANiY6qpMeQjIUL39xbmw+vR42MQ3EpYDfyKpKsIOa6+xovnm5s90siFGzEAINQ4kAgBgAhIJRJtYwy3hgI0xjoJEXx+ujqF3cm1Th2Ndd29FdUBjwVNiWdMWaiiYej8wuJRHNl4O/Pd/U0yU7YFFEi6EACGkFKQCxL1DLKeGMghqGpOn04nv7DZ0NihePyue6D7S6HAjIYIhYI0CwqCZ3cfBB9cP9llUv5n/9joMVHFECKMhJUqUqRiCATUibUMsp4I6A5AnNp/U+3J4guXH6rq7/LubCW/OR25Ovna4mCjMB8VG+TyG8P1v7qWPfqRuaLW+MpVdBAZoKOVBXAoGVBWkYZbxJiAYWH07GVzcLpI/UnuisyBf3zGy8nVkQRM09H1y6daO5udDgJ+ipg4GDgcdg9MjE7f6zN3uAkgCKCAApgmU7LKOMNguYMHJ9NiDb5cH+1nWT0LCbjUmVVZWv7gZnF/B8+Hvn3ryOTKWMN0OWH/oO1jMrj0xs6ooEMUAAm8rhpGWWU8YZAVZWlF6dqPWJllcMQHCoaorhZ6c7/9lLw6sXOgKPizv3lP340M7ugyaj3hgIg18ytFoAZMhoAIgASgmWjtIwy3hyoziCjod3hFBAEYIjADBT0vNOGA0ddv77a1dDpn1uOPH0xbTBqs8tUkPK5AmMECUEgZTlaRhlvGqIBoIvOvCEKDGQEQGIAJUB0gIxmzC9vJJI5iVKfRyaUFHRgqEtUAiAGCEBAAKRQ+oTqTudWy3RdRhn7giiKxOFxJ1K5Qp64FUopIaKU18Xwsv58OPLiRcSmeM4fO3BmIEgA1xO6Wtj0uaskShEoEhQQERBKHSVH2IEiEQDgx6Ak73IC/sfQvTJ+EJir/NNdU9El06Y6/8Tw4vzSprvCSQVCiRFdzX340Uum5g60hM4cq+tuktwC5HQy8XKZQKazudJGgYBoAAAgYGlq/EnI0iJCRURCyE93OcuwgjEGAIQQvqx/7e68PqidsKMdAaeEXz2cCm/odpfU3VZlh1zQqb/7dusH79YfbNFtYk5HmFnMj43PBTzCgRY3aNwgRYJYkhxx6//b//tRgdMkInJyNf/8a/erjB8AP2nKtIJsskyqoPz753P3R+YGDjf+/HSjg4q5TdXpEAJuSQEVQc+CPBlRv7gxubQSu3yp68qh+godUSIaZTJjFCnQ4nOq/GBbyc0u/Mg0XpNEGWOCIHC+S7eNqIyfHBhjjDFzKX+6aypKRPfI8ttnmqKbhWejs4Vc7tzhtsYqh10GQMgbYmJTnJjP3fhmYiOdPHqo5URfnURAI0QF0JACEIEAAoiAFBkAABAkFPFbXVgjyI+qMgaEAgCIyEQCAhoEBSQUt8iVfA9l2JR+RbpNScFoLcDfZjKZxcXFTCYTCoUqKyt34SA7idmSn5RUtKw18Lff33DiDXF2Qwjhmh6l9I2yQnN0JrPjf76JRk1NZ48lOdLp9PT0NAC0tLS43e4fvFf/ZSAayzMQCyDMr2uf3n45PLVGZUdtpasq4FZsek7PRCJafMWwy+rZ47XnjtR7ZJrOGJPL2cV0XtMKtU65tsZZ7XMERKIYOqUMCWVEQKSoQ0HAuKrPLiei0U2tQB0uqbbOWxdUgjIqWBBRQCoxQnQgFIj4ulRqCkPY2iucg5p7FwD4n4hYtHc5u71x48aNGzc0TWtvb/+Hf/iHiooKQRB2bwgsW2cnU5ZTi1mmZCW8t7tUshfwGgzD0DTtyZMnGxsbVVVVR48eLTmKHwqGYYCFD5oU+4M3ak4jvDqTJWFOb6FQ+PzzzwcHBxljBw8evHr1qt1u/2E79l8GUWASBSTAGv3i1Xc6O1v8z1+uzqzkX85oskgk26bdhr19/iP9Tb11HjfQkZfJ6w9mXq5k8ihKAhH1gkPRTh85cKqnts4rSWBQolMCBkCc0vBa/sbt0fn5uK4pyKgBhqNCPtJdc2Yg1BCwU4oEDAIoAgGgAMLr0ampr1JKDcPIZrPZbJarrw6Hw+l0Wtk8f279XNf1cDicz+dFUeQSdSe+axJ/kZOppMBExEKhwMuLoiiKovmWl2eMaZoGAJRS3qXXplJzXOl0+tq1a7quHz9+/OjRo69X296haZrJBPkA34RWaWoHe5wfzjgMw5ibm9N1XRCE+fn5XC73E6ZSAoQAI6A7KZFd9OKh4EBX8M/PEje/DLc1NL59zlXlJT6HZBeBAg7Ppv7PjcfrGTjQ2doeCroUurqRn5iK3rj9MraWf/dnrbV+KhNCGBYMnIzl/t/152uLiea6UFd3SLGL6bwxOr7w1eDkSiR99W96q9zEIQBFIMCAIIHX5MGIyBjTdX12dnZkZGRubi6TyXDasNvtjY2NPT09nZ2dfBsVCVIAEEWxubl5YmLCMIyGhga3272TWmtlB1x8cdFh1WzN34yxTz75JJFIeL3ed999t6KiwloVYyyVSn3xxRfJZDIQCLzzzjsul+v1hm+FYRiqqgqCwLv3/SvcBYVC4fr164uLi4QQj8fz3nvvOZ3ON9EQY8xUkfYiqPkyybLc3Ny8uLhIKW1ra/vpkigAiEi/TSCiaEjARELBJtZUyAqwbDJeIVfUVoCDaBTFhTT8x4Pwsmb8/GcDF3sDVTLTENPgb+t0f3FdeD4TrmtyuzzVFaIICJsqfHV/OrK0celk/+mj1c4KxggzmKOr48DNG66R5zO3n6xcOVdjo0RAERCQsn3J0SLNM5VK3bhx4+nTp6qqapomiiJf1I2NjcXFxeHh4ePHj1+8eNFut1vtN1PAnjp1qqqqqlAoNDQ0KIpiFQjWhiil2Wz24cOH8Xi8qqrq9OnTVn1ve1BnamoqFovV1tZadTazGGNsZmZmbW2toaFBEATDMEx5u5OlV6TYl7TAS3a+qIbvYwDDlnCLxWKPHz9Op9OEEFmW+/v7e3p6dop5bJ+lIlW5ZHmOaDT65MmTTCZz8uTJ5ubm7aPYPkzu/zt//nx9fT1jrKOjQ5blvQ9wp16VHFHJ3yZ2MoW2q+67fCjqBCkhBCQAIEC46qkCUWVXOG5cvxe+8lZ9tVuhMhmNZObmc4f6Oy70VdZIusjUtCF+M7fgcrnfvtD0vz9Zuj823dFVSZwUGEwuJV++jB5oqr9wrMbrQAPUrA6z0+vUqDh7OhRdSTwZnT52xO/1ypJBuUN4X1vH6i9JJpPXrl17/vy5YRjBYLCnp6exsZFSqmlaOBweGRlJp9N3797t7Ozs6OgoMmIppZRSp9PZ399f5IMpmj7+UFXVGzduJJPJo0ePnjlzhpMEF+ZFcTkzqFOSnKw8gldilRI7OcPMh2aXzOW0tr59E3BxZPb2e4pZ3u709HQmk+FqRT6fn5iY6O3t3ePnpjUOlukFC4uxuqbm5+dv3rwJAF1dXdbC5lSYPgj+0JwKj8dz5MiRvRv8Vr26aIZ3IjbeYcMwrD03N9IuTRdts+0cx/pQJIAIFOEvlSEBQ8xuCinZH3o0FVlfz7SE6hSvMj2fshnisfYaWTdW0jpVnF8+Xrr1bPTCkfrzJ3tqQ7UT06u3Hi5XOQkinV/OFTTS3VkvUIwnVV2yPx6OPbwz2t3ceOXvDjSE/E+HV6PriVZPNTAAgTGiExDJfm4e5ePUNO327dtDQ0OEkAMHDrzzzjuhUEiSJD5Nhw4dOnbs2M2bN5uamlpbW/lUmly8SCCXnFaTJEzriOvS5u/dpdN3ujo4/ZR8BducMfiqgb1HV8oPJUhNGIbBGBseHjYMo6WlRdO0xcXF6elpTdMkSSr5SZGcsfbKpI0iXmY+LxQKXNfl1GjWZmU9sDWZsE2bwH2G1qzMGr5runiL3OoxO2waRN+5K8wO45YxVbJFUWCUX9WJAIQggCEidRrECbmeXofX3jr7ZHrom+m8LOcRJMgrbuHJzNLN22NOb+fKUqzRFzjR1uSgIEtKVnN9/WDeJeRVQy/QCkG0M0EcnVm/cXNY8h2YW054bM7uo9U2avicIoJkMH6jKEFiIMkA7MNXbs7j1NTU3bt3KaUNDQ1/+7d/W1VVZY6TUsqNk6tXr3I9ln9lDVQUzQj3W1r9wHzNuBOCEMILWBeSL781Lle0GLvTklW2Wx9yBdg0ycxXfPmttL07t9Y0TVVVXddlWZYkSZKk7ylLebtra2urq6uCIHR3d4uiGIlE4vF4OBxubW39zs8RUdf1fD7PxyKKoqIoRea9ruuMMd5bvulNgWnd4uacm7KLO+2tLVJKdV2HV7WVkuALXSgUVFUFAEVRFEVhjFk9f9uHY3UoFgqFfD5PCJEkyWaz7TLPfOy8ObMeWZb5ovPNZhYW+S2diJxEEYAJSByazWHQepd+7rCfdR6KrqkpDR5PrD55Mbuay0tep2qTV8Kz7ZW+373bU+enmzpRU4aNCe9cOFTjRR3Y+GLym5HpDOoBv4tJ9tmZ+Qqf58ov+puaHVkGhQIqKDllu0EMXQBGgYGw40zsMEhKaS6Xe/DgAWfhb7/99vZQJ//T4XBYV5f/np2dHRwcLNoZkiSdPXu2qanJWoNhGDdu3FhdXeXt5nI5AJifn//jH//INxDvzIULF0KhUFEnzbXcPgTcwvZXsVjsz3/+M2Osr6/PVMXN/kxPT9+/f18QhOPHj7e1tZVk24QQVVUnJye/+eablZUVTdMURamurj5y5MiBAwdMXWPv2qB1RISQubm5QqEgCEJbWxvfW6qqjo+Pt7a27iSCOINLp9OTk5Ojo6MrKyu6rhNC7HZ7XV3dwYMHW1paFEUxZ+Crr77K5XKU0ng8zulkcHDw+fPn5ny6XK7Lly87nU6ucPK+TUxMDA0NWaedk9nFixdra2tLjohPhaZpExMTo6OjS0tLmUyGc7RQKHT06NHGxkbu6TBpEgDy+fynn35aKBT6+/u7u7uj0ejw8PDU1NTm5iZjzOFwdHd3nzhxwufzFc0G/zydTo+Pj4+MjKytrfEnoigGAoG2tra2traamhreIv/EvFfM3CwiEjCowQhRCPgJcXilSh8ylBy0cm4yMvk8+qsr7b98ayA6u3C8r72uxobIFhazK8urTUHXhYOOKrvGCKm0a5Oj2tT4Ss8vDvzm1wcnns/1djY1NVcwAtPJwth0pKrCHXS6CNF1QScgUXDtKwzDmeja2tr8/DwAVFdXt7S0kC0UFbYyUc7AKKXRaPTx48dmeR7FkSSpt7eXuyjM8oZhjI6OLiwsmCsEAMlk8smTJ6YKLQjCqVOnitrlrN0Uv+YimaK4qLD5O5vNPnnyhDHm8/kOHjxYVCYejz958gQA2tra2tvbi76llHIX2pdffnnnzh3DMHgHAGBlZWVqauqdd945ffq0KIqvIVR5twuFwvj4eKFQaG5urqqqEkUxGAwuLS2NjY1duHChyJvNwUloYWHhk08+mZub45o8D0TxSMmzZ8+6urree+89j8dDCEkkEs+ePVNV1VR8GGMvX740tSFEDIVCly9fNqeUr04kEnn69KnZqKl3nD59eqdBccF+69atwcHBTCZjyjFe2/Dw8OXLl0+dOiXLr1zulc/nnz17trm56fP5UqnU7du3o9Eo1wgopalUKhwOR6PRq1evcqGKFmt8YWHh448/npubg60NxgusrKwMDw8Hg8ETJ05cvHjRlOFFAozAq8l9AoAIKAMAwc6Qs6vONz8aGQ4EDh3297b47CLJ6hBeMf7f7XCqkLr8i16PA+0UEWhrjbenoXlsfOmJ0/PWqdpLP+8TRMIA1tb167cn1hOJgWN9fg+VUJAYJQhADUL3IU35wkSj0VQqJQhCQ0ODy+Xay54zt2ZNTc3bb79t+jCWlpampqZMfbioodOnT/f19SFiPp+/d+9eoVDgcom/5eHQysrKolCBKawMw7BSKViiC0WqtfVbsJD03mcGAAghw8PDjLG6urq+vr7GxsZ0Oj08PDwyMpLNZm/cuFFTU9Pe3v56ei8hJBaLhcNhRGxvb7fb7YjY1ta2srKyvr6+vLxckkoRcXV19aOPPopEIoIg1NTU9Pf319TUFAqFxcXFsbGx9fX1aDRqTn4wGLx8+TL/MxwOP3/+nDF27Ngxri5xk8TtdttsNnjVQmloaDh79qzZaDgcDofDu4yUr87XX3998+ZNwzBqa2sPHTrU0NAAANPT00NDQ4lE4rPPPlMU5cSJE/AqQ+RUd//+fVVVJUk6d+5cd3e3oihzc3N37tzRdX10dHRubs7q9OKetj/96U/z8/OyLHd1dR04cCAYDAJAPB6fm5ubmppKpVKbm5vWTu5CGMj9vRRQAUBEt4NeutT+f/8jcePrZ1OLNc2tQVmAVCw3Mr62qalnTncdbHO7qC7oDKnoUuilnzemMhvfDE0sLqea2wJOD4nHE1OTkfWN7NG+9jOnqxXJEJFSbp3ijmdrduwfIudehJDKyso9JgaYRNLU1NTY2GiWf/Dgwfz8fMkwoyzLJ06c4ASTTqcfPXqkaVowGLx48aJZpshWtDZXRI3E4ozlHpHtLaIF+5gRy7eFQqG3t/f9998PBoO8Eh4zfPToEdcCmpqa9hicsIJ3dWZmJpFIOJ3OtrY2LuV6e3sHBwe5p7ezs3P7h6qqfvbZZwsLCwAwMDBw5coVv9/PJ+3QoUMXLlx4+vRpMBj0+Xy8t16v9/z581wuDQ4ODg0NSZLU399v1SxM3mfV3js7O60d+PTTT+fm5nZxHem6vra29ujRI0Ssr6+/evVqKBTi7XZ2dra2tn744Yc8ztfe3u73+7fPdiqVqqure++991pbW7mC0NDQQCn96KOPDMN4+fIlj9WbXV1aWpqZmTEM49ChQ7/5zW9sNhvXAlpbWwcGBpLJ5Pj4eFdXl5Xdb6NS/PbkCiFAEAkiMEZEJIA2ik110m9/e+TP96aHx5cmZ1cJpQQNn9N2+UzrqUNV1SITC4yAjBQI0au85P1f99y7HxkZS8zfTYNgoJhyO+nlUwfPn6r1OwsK6gScQAgSgP3nnDLG0uk0153MlADcyg7jDgNicfwwxnixIn+PSQ+mZlhkB5ItjyLdgtWZAVs+Oq7tWHvIuX4sFrt27dp2KlVVdWNjg2w5M18DJcmYd7i+vv43v/mNz+fjfUBEt9t95swZLk6np6cTiUR1dfVrCGpN06anpyVJ8vv9DQ0NnK81NDT4fL54PD41NcXTKvgmM9W8cDg8NTXFGGtra/vlL38ZDAb5h5xJeTye8+fPm+YDAPDEDHOSzYwUq9HLH5r0aY6lSNyRVyNk2/Hw4cONjQ3G2Llz50KhkFlSkqTOzs7Dhw8PDg6urKyMjY2dOnXKWhvvvN/vf//99zs6OviIbDabruuNjY0Oh0PX9UQiYS4T78zm5ia3ufx+vyzL5kj5iILB4JkzZ4ocXZa0NQAAsnUODRlDIHzEiMAAqIjgAaM9KFRd6X7r2IGVmKrqBW9ACfltPplWSGg3kIBEgCIwQgseJld47fWX288cNVZjejZvVLhZdUCudSgOuSCQpAwKABgUDAJARAn2rYHxDcFX0dwQiHj37t2vv/6aD5XTHmOsvr7+97//PU9sgC1j1fzK9AAXNWGumUmE5oxbObR1h5kwLdKhoSGzZmJxQqAl1le0t/jzko7ooo6VfFVXVxcIBKw9JIQEAoFQKDQxMZFMJtfX17k/fF9gjCWTyUgkQghpbGzk0hgRZVlua2tLJpOJRCISibS0tJhhEj7w0dHRQqEgiuLhw4e5RDJnbKeBFBXgs7TdT2tlf0XTYk7sLnOVSqXGx8cBIBAIbI/VybLc0dExODgoiuLs7OzJkyetO4Rvm1Ao1NzczNk3bHlruYTUNM3sgEmr3EwlhExOTpo6vDWGVBT+hZ01XkIoJZRu2agMCQoGEQxqFwEk2hikAbdoEIesgEzQTkFEAKRIASlDwkSURF1kiCCqoSAJ+ESR2gQAEZhEgBJGUGKGnVIAUgBCEUrH2XaCOYYiuuLDczqd6XQaLH4FSmk6nd4pmgevyqU9ipeSVG2Fma5w4MABsyTvDCJyocQXEqDYLv2e2C7VuW8sGAyOj48bhsHnZ78tcksvmUwyxrq6uqzBrb6+vkePHmWz2ampqfr6eu5G5p/kcrnFxUXGmCzLTU1NJaNWfy3k8/l0Os0Y8/v9pkZmpfxAIKAoSiaTWV1dNR3C5tuS6gwiSpJUFE0xhXAoFKqpqVlaWgqHw3/4wx96enr6+vr8fr/NZjMMg39VtC6lqZRQAgCariMAEkQCiGgImEGaU2FsPvX4xXRkbT2XZV53TWez89ShUJ3XBiIBohKqEyaJuqRRI4ckEmPT0fhqPG5oup06GqpCoXpb0GuTURZBpIyBkKdAEcV9iVI+EjO4ZH1uGEZTU9Ovf/1r7iFUVfXBgwemt3AXutou03Zq9zs5NAeXpT6f7+rVq9t3QCwW+5d/+ZdoNPqGMtS3SxVRFJ1OJ98uuVxuj2mxVui6PjY2ZhiGx+MJhUKm5BFFsbGx0eVybW5ujo2NnT17lpvc/G0ul+OZ1TabzeVyFW3fvy7y+TwP5PCDUFb65BTocrlsNlsymczn84VCQVEUU2ibhpJ1U/GZ3y4PTbhcritXrly7di0ej0ej0UgkcuvWrdra2o6Ojp6enpqaGpvNVsTIXqVSrssh2CVCcHMtvpE2KhXKRCAMhQxjaxr5+MbCw5FJhyMTcClBuz+d0u48CE/PxS+81TFwwOdEajOAAhrESCAMz2zMz2UYGIINRbvBCvB8IvpyBXo76zrqHCJBCgZhClBEohPYx9k1Pi+KonARkc/nTUWUu1urqqr4PKZSqSdPnhQKhZKz9toSbC+uHb5U2zMTwKIMWzU6/opYEmteo2Nm30oOzYz78eD73mvjHUskErOzswDAA3r5fN6qutfU1MzOznJPLw+cmsqeqqpcX90Ld9veAf7jtQ34XcBpT5ZlM3/bJD8OSZK4yqBpGg8d4auBtO3+P7OG7SPlr/r6+mpqau7fvz82NhaPx/P5/MLCQjgc/uqrrzo7O8+fP9/S0mJ6TwghW/HSrf1AAAQC1T5HqMo/Mbk819dYUa2gngdiGIJ88+7Mo6cLodaGSxfquqqcEqHpTTb0Innr3sgnN58q9mNHG90CowyZRmFqcXNsci3o8vd1+SsriSDomby8GGHPpl8+H1tx2uvtAUEiOjEUBGCg0v2cXENEQRB8Pp8kSTyrfrsVh1upYWQrZwh2OFplcscflscTi4+hSLLx/fqdPGIXQt1dnpd8ZdIbD/TvXfM0LcxwOLy+vi4IQiQS+dd//VdrLi4/5WMYRi6X40lI1sQgunU6D35o3X53fOeaUkolSeKpTmDZCbiVV8zdkLz/RUlIO1W+U4umBYSIgUDgV7/61c9+9rPV1dXZ2dmJiQl+fJL/+OCDD/r7+80PS2i8AmC1Vxjobv74z6M370TcF5vrAnadGOMLmeGx1eag7YNLnbVBqlAGaFR4BccJHyg9N75+/HgofKCmV5QJIeJamk1MLdsV2tfrrw+KEkEEQbGBp0VQHPVPniy9nIzXnaiWRJCpDiDS/Wu8hmFUV1cDAGMsEonw0PAuyVw/IZi75LXFaRFM+uRKByI6HI49kqhpKRiGMT4+zvXkzc3NbDZr0psgCPyALg9FTExMnDlzxmazmT4YWZYRUdd1Lo5+POAauK7rm5ubRWYk/5HNZnO5nCAIXN7+gE1zE6Cpqam5ufncuXPLy8s3b94cHh5OpVJff/01j0XzYiX2NAFVIeqhXt/EQtX41NL/upY7dbSpLuQYmVOXkuz3v2xr8RI1o4GLUqKiBiLS/m7v8xe107PxWFq1B6Scqi8ljLymtDZ7KwOCTHQZKAWRoaETvaFKWgp4V9fVRJbZPUQATUCBwL5tFUJIXV2dx+NJJBKrq6v8goL/Sj795mCqXj+Ujse5fqFQ4HmOsiwHAoG9f8sJO5FIhMNhRVHq6uo6Ojqs2UtcLGuaNjk5ubS0tLy8HI/Hq6uruQS22+1+vz8ajebz+eXlZZ409yOBoiiyLBcKhXg8nsvlTP+iySg3NjZ4qq0Zk//+MC0IUxMRBKG+vv7dd99dXl7mSSMbGxsOh+Nbh0LJWkSq+x3s17/ocHmVkeG5a5/HJcGZJh5mc1TV+xKJ9H9eu37iZyfr6313vvhKqhD63/pZZcCzvpxO5lS3qj4bmYtueAmVPW67TA0B8hLawKCE6FTI2Ijs9dqja3qmoBtAEHjK/b5JixDi9Xrb29sfPHgQj8eHh4cvXLjAZ9m0HLh1Z8KcI3OarDaPlcJN8rBqNTxll0sVnlFY5CSw6pCmNvgaQ+MNEYsLEbciRoZhcE+MWfN2xsQVDWuGBjerYrHYwsKCYRiBQIDnu+ydqSHi4uIij/UdPnz43Llz5pYlhPCMXET0er0ffvhhLpebnp6urKw0dbyWlpbJyclCoTA6Otre3s6FUpFZXrR3rR3j3gfcOiFo7ZU1irbdiLCqJFbFxCzmdDpbWlqGh4c3NjYikQh38pmhWl3X5+fndV1XVZXr8HvUbopaLPnDHL65D+12u8fjiUajsiybTilE/Ivl8Bc7B2XCvDaU6l3iu+db/v7vjh4ZqK6rlOySpmIhB7k796YAAAuSSURBVJAnhmSXKQoCkUFwaYZAGKEEKOW7QUVdF4GpusYAGIAAFBAIgkApISJSGQhhWBAIUKDwrdOIwT6vASWESJJ05MgRHru/d+/eyMiIeccHbjnfeMY22UqhLKJY65qRrXCrdaWLSnLNh1K6srKSSqWsM65pWpHo+04C2IlIeLAbANbX100Vke/I+fl5nmq/S/3cBFheXjZdUJqmGYZx//79dDotCEJ7e3tFRcUe7XBezDCMqakpTdMcDkdDQ4NJSKbGy/9sbm5WFCWfz7948YLbIBzd3d0ejwcRR0ZGzARd86yCpmnLy8urq6vk1WxKDp/PZ7fbDcOIRCLmCRL+ocku8VWPTlH/eUPWt+bAbTZbT08PV3ofPnxophzwNV1dXX348CHnPt3d3UXx511mzFrAupd4nffv34/H42g5t8h7GIvF4vE4t4HNwH5pWYpAEUAEdKIuS0ag0dUb6tJUuPUs9u831iLL6ZaDwb/5u1+6ZaozcvHSGQ0wnYelxZjDCW6X7Hcpp4/0ziwaD8YXk5t53fAwIgEAUEQiGuja1CGRScqKKglMREFAmQAC0WE/Pl7Y2uKtra1vvfXW559/nkqlPvroo3A43Nvb63Q6GWOFQmF5eZmzSUKIGY/iHyaTyVgsxp0ohmGsr6+TrVShmZkZAGCM2Wy2uro6qxdEluXu7u47d+6sra1dv379+PHjFRUViJhKpaanpzs6OqyZ+kXysCRK5iS6XK7q6upoNDozM/P8+XOuXqbT6ampqZs3b2YyGXN1t29Nzmui0ei//du/nT9/vrOzU5blVCo1NDR0//59QkggEDh+/Ph+j7BlMpmZmRnGWHV19fZ0CLMPgUCgqqpqYWFhaWlpdXWV0zMiVldXv/XWW9evX0+n059++mkkEhkYGHC73YZhbGxsvHjxYmhoqKGh4Xe/+531niqOqqoqrjDfu3eP5x6Qrdz05eXlM2fOOBwOsNAAP7TEn8RiMZ58try8bK6jLMs1NTWm4O3t7R0bG3v69Onw8LAsyydPngwEAqqqxmKxmzdvct5x9uzZQCBQUlDvcQ7JVsTh448/npycDIVCx44da2pqqqioEEUxm80uLi7eunUrHo8DQGdnpzUduhSVUqahLoEuI0qMMBB1RCZBf6P7a1l5/CjcWufurhIlwxCYADIU8sLQ09WNRGygv8XjkCTQJYHUBxV3hRRZWm3yOVwBRaKMENSQbqo0vLa5tLZaX+UOemSR5wcSRGKQ3ZKKSwMRRVE8ffp0JpN59OhRLpf76quv7t27x5Ow+WE/noHl8/k6OzvNfCNEfPbs2aeffmqm+Oi6zpnol19+CVsZapWVlf/8z/9s9UjJsnz8+PG5ublIJHL37t0XL14oioKI2Wx2c3Pz+PHjoVDIejHKTgzeLFDyrd1uP3r06GeffZbL5T788EO/3y9JUiaTSSaTHo/n9OnT/CoTc/mt33L/bU1NTSwW+/DDD30+H6fSbDZrGIbL5bp06RI/mrdLTG87FhYWEokEIaSjo2MXJ4osywcOHAiHw9lsdn5+nqet8yaOHTuWy+Vu376dTCbv3Lnz+PFjnqmfTqe5wpzJZNLpNNc5rR3z+Xznzp27du0anw2Hw8Gz8FKpFCGkqqrKdIcahnHr1i1+ug22rBg+w//5n/9pajpNTU3/9E//xDcDY8zpdJ4/fz4Wi62srDx+/HhkZMTtdquqmslkeKjp6NGjZ8+e3UlQ72X2OPhO4+co5+fnFxYWbDab2+2mlGYymWw2y/3J7e3tly5d4pPM6y/pPeJCTeDKggBEIMQAVhsQz5xsuXX36Z/+PLJ2uK2t1kUIy2xkh0c2nz2Nel2OkwP1TgkEgoQQn4t2NXpGpxaeT8wnm0LBgF0SqGGwhcXk1ELEJpP2pkqFclWYG6f7i+xblQq73X7p0qX6+vqhoaFIJKKqKg/Zy7Ls9Xq9Xm9nZ2dPT09dXZ1JpQAgSZLH47HuVNOq5I4Qa3qw2Sgi1tXVffDBB3fu3OGGFj+LCAAtLS319fW8JJeQ3AVt5rubS2Xy4GAwSAjxeDxFVjEh5OTJk7lcbmhoKJ1Or6ysEEKcTufAwMDJkycdDkc0Gk0kErIsW+1nAFAUJRAI6Lp+5cqVXC43ODi4trbGNU+Hw1FbW3vq1Kne3l6rSfmdU807HI/H3W63oiitra3bU7hM1ZdS2tHRMTExkc1mY7GYdUSSJJ0/f766uvru3buxWIzTJF+IYDB46NChgwcP8ij39soHBgZEURwcHFxfX89ms/z2BpfL1dTUxK9Ew63j+A6Hw7pqhBDzrjbT2OH+bT4t/KvW1tZ//Md/vH///ujoaC6XW19fR0RJkhobGw8ePHj69Omi27AAgIflBUHgy2d9xfXwQCBgt9tNkch7WFFR8f7773d2dj5//nxpaalQKMRiMV5AUZSampq+vr5jx455vd5XZmDv1nAOYCUPX91/ef/xjMrszgqvQFErbOYzalXA/Yu3O/vbKuzUEIkBKDAUMgxnIvHR6aWsTolokyQJNa2Q3XS77d3tdS3VLjthCjEo8OtcCHndmz5N9a9QKKyvrycSic3NTUqpoih+v9/r9XKNyHpuEACy2SznlCUHS7aybd1ut7mnzfOKAJDP52OxGG9LUZSKigqeNcJ3MC+TTqe5ju10Os2djZa7M5LJJH/IE1/MzvDorqZpa2trsViMh919Pl9VVRUPaWQyGcMw7Ha7yXH50HRd5ycQ7HY7F6HLy8vJZJKzpKqqKpfLZWac7mt6s9msqqqUUutYtlMUIqqqysWCLMsej8esxBx7Lpfb2NhYW1vj2ZF8XDwpqqQTlW3dNpzJZFZWVpLJpKqqdru9trbW4/HwGeDxIcYYVxmsU70dJv8lW0lCvDD39Mbj8VQqJYqi2+2ura212+1mtmNRr1KpFGNMkiSHw1F0sxxfCP7E6/WixU8GW1mTyWRyY2MjlUrpuu50Ov1+v9/vNyNk1vL7oFIDdQ1JWqUT88nhiXg0li2ousvlaG129HX6Q0GHjaBCGEGKSBCICqAiriZyi6up1GYul83JklgZ8ITqA167qBC0EaSgUwD8lkpfM9Rp+nvMHyY1FpmFZj70dsu+CObVKvjqzTpWScgfmv7AoibgVQ+klTCs6aBYKuG+yOxkW1dsMMs1OdtHgVt+YPND64h4/UUN7QVWAjNVmJ3qsc6PderMSsyuWt/u3jGr6W6twfrE+n9rJdYPrXVy7gmvbhJexnqsouRZiJIzY83ZMNsyz/0UJZCY9VtX0Lqm+Or17vugUsZUAmiAlNGJTuimhgZDSUSHzBTKKIICAgVKCWFIEAAJMwB0ICojGkPdMERCFYlQIBJFEZGiTgkAACMUgNDXvY+35L40/7QuqnU5YWcSLdruViq1FjCX1lqAbAG2NB9epmgVt287eHVLWVkPbNFYUbY3vEoMRdqvtXIrKyH7/FdwrOqiSerwKrO3Tp2VqLYzuKJgBrFcJrgL+2A7HJo3qyr6/Z2DKrlVrCiqcBf2YZKi9bm1J9s3W9EGsDZqfvuaVAqISIAhICEIDIlOQQXQABUCCkFCkX57ixJhyA1OAIMICJTBt3EWAiAAUkQCjADwW9GQUAQqvO4/E1Nyiku+2qMMKWJ1RV9t3xnbmyvi90UrtFO7RfWUlIfbpej2Cq0Ftn++fUTfiZLd2Kmeknxw+1Rsp5Pv7FXJRkvy4n0NxwprT4p6uHs931kASq1vyd/by++VSgHAADAACABBoIjfnhEHhiB8++80fVslA2BAGAAQ/i87AWF/iYWiwAiBLWubUCSAQGD7P9tWRhllAMCuN6oUg2z5YfnVoOTby5EELg+BIADbujhpqxRu6QqvcB3Yqolwd9FrytAyyvjvgf1QKQMBAAgSMJCgIXDKIwQoAEEwgBgACECB5+UCfKvREiA8ExC42NyS+0D+8hPYfoMxZZTx3wT/H031m9mQUqVPAAAAAElFTkSuQmCC;" vertex="1" parent="WIyWlLk6GJQsqaUBKTNV-1">
          <mxGeometry x="507.25" y="210" width="185.5" height="31.61" as="geometry" />
        </mxCell>
        <mxCell id="TotBF1mNxbMJLCwTNOgZ-32" value="" style="shape=image;verticalLabelPosition=bottom;labelBackgroundColor=default;verticalAlign=top;aspect=fixed;imageAspect=0;image=data:image/png,iVBORw0KGgoAAAANSUhEUgAAATcAAAA1CAIAAACr/zvaAAAgAElEQVR4nO1913NcR3rv133SJExGHuRARII5iqSWS2q5Wq28dml5be++3Ac/+H9y+WV9a6vuvZYl8VqrwCUpkWAUCZIAEYk0wACDMIMJmHRCf/ehhbOHgwEEUKJXKs+vVKrBOX06f/nrJkFEKKOMMn7EoH/tDpRRRhnfgTKVllHGjx1lKi2jjB87ylRaRhk/dogAAIAACAAIFAEBkAAgEGs5AkAAAQCQIBAg3xYDJADk1bJllFHGDwkRGRAAJDlkVCO2HNUMyCno0BkgJQZhFEBGIiERURWAIToMQoAySvIECTAbkDKVllHGG4QIDAABRVAJZhjJqNJ8VH0ZScRiGa2gyRRbQ4GORleVV3YrMhKVICOABBgBCYBCmUDLKOMNgzANiY6qpMeQjIUL39xbmw+vR42MQ3EpYDfyKpKsIOa6+xovnm5s90siFGzEAINQ4kAgBgAhIJRJtYwy3hgI0xjoJEXx+ujqF3cm1Th2Ndd29FdUBjwVNiWdMWaiiYej8wuJRHNl4O/Pd/U0yU7YFFEi6EACGkFKQCxL1DLKeGMghqGpOn04nv7DZ0NihePyue6D7S6HAjIYIhYI0CwqCZ3cfBB9cP9llUv5n/9joMVHFECKMhJUqUqRiCATUibUMsp4I6A5AnNp/U+3J4guXH6rq7/LubCW/OR25Ovna4mCjMB8VG+TyG8P1v7qWPfqRuaLW+MpVdBAZoKOVBXAoGVBWkYZbxJiAYWH07GVzcLpI/UnuisyBf3zGy8nVkQRM09H1y6daO5udDgJ+ipg4GDgcdg9MjE7f6zN3uAkgCKCAApgmU7LKOMNguYMHJ9NiDb5cH+1nWT0LCbjUmVVZWv7gZnF/B8+Hvn3ryOTKWMN0OWH/oO1jMrj0xs6ooEMUAAm8rhpGWWU8YZAVZWlF6dqPWJllcMQHCoaorhZ6c7/9lLw6sXOgKPizv3lP340M7ugyaj3hgIg18ytFoAZMhoAIgASgmWjtIwy3hyoziCjod3hFBAEYIjADBT0vNOGA0ddv77a1dDpn1uOPH0xbTBqs8tUkPK5AmMECUEgZTlaRhlvGqIBoIvOvCEKDGQEQGIAJUB0gIxmzC9vJJI5iVKfRyaUFHRgqEtUAiAGCEBAAKRQ+oTqTudWy3RdRhn7giiKxOFxJ1K5Qp64FUopIaKU18Xwsv58OPLiRcSmeM4fO3BmIEgA1xO6Wtj0uaskShEoEhQQERBKHSVH2IEiEQDgx6Ak73IC/sfQvTJ+EJir/NNdU9El06Y6/8Tw4vzSprvCSQVCiRFdzX340Uum5g60hM4cq+tuktwC5HQy8XKZQKazudJGgYBoAAAgYGlq/EnI0iJCRURCyE93OcuwgjEGAIQQvqx/7e68PqidsKMdAaeEXz2cCm/odpfU3VZlh1zQqb/7dusH79YfbNFtYk5HmFnMj43PBTzCgRY3aNwgRYJYkhxx6//b//tRgdMkInJyNf/8a/erjB8AP2nKtIJsskyqoPz753P3R+YGDjf+/HSjg4q5TdXpEAJuSQEVQc+CPBlRv7gxubQSu3yp68qh+godUSIaZTJjFCnQ4nOq/GBbyc0u/Mg0XpNEGWOCIHC+S7eNqIyfHBhjjDFzKX+6aypKRPfI8ttnmqKbhWejs4Vc7tzhtsYqh10GQMgbYmJTnJjP3fhmYiOdPHqo5URfnURAI0QF0JACEIEAAoiAFBkAABAkFPFbXVgjyI+qMgaEAgCIyEQCAhoEBSQUt8iVfA9l2JR+RbpNScFoLcDfZjKZxcXFTCYTCoUqKyt34SA7idmSn5RUtKw18Lff33DiDXF2Qwjhmh6l9I2yQnN0JrPjf76JRk1NZ48lOdLp9PT0NAC0tLS43e4fvFf/ZSAayzMQCyDMr2uf3n45PLVGZUdtpasq4FZsek7PRCJafMWwy+rZ47XnjtR7ZJrOGJPL2cV0XtMKtU65tsZZ7XMERKIYOqUMCWVEQKSoQ0HAuKrPLiei0U2tQB0uqbbOWxdUgjIqWBBRQCoxQnQgFIj4ulRqCkPY2iucg5p7FwD4n4hYtHc5u71x48aNGzc0TWtvb/+Hf/iHiooKQRB2bwgsW2cnU5ZTi1mmZCW8t7tUshfwGgzD0DTtyZMnGxsbVVVVR48eLTmKHwqGYYCFD5oU+4M3ak4jvDqTJWFOb6FQ+PzzzwcHBxljBw8evHr1qt1u/2E79l8GUWASBSTAGv3i1Xc6O1v8z1+uzqzkX85oskgk26bdhr19/iP9Tb11HjfQkZfJ6w9mXq5k8ihKAhH1gkPRTh85cKqnts4rSWBQolMCBkCc0vBa/sbt0fn5uK4pyKgBhqNCPtJdc2Yg1BCwU4oEDAIoAgGgAMLr0ampr1JKDcPIZrPZbJarrw6Hw+l0Wtk8f279XNf1cDicz+dFUeQSdSe+axJ/kZOppMBExEKhwMuLoiiKovmWl2eMaZoGAJRS3qXXplJzXOl0+tq1a7quHz9+/OjRo69X296haZrJBPkA34RWaWoHe5wfzjgMw5ibm9N1XRCE+fn5XC73E6ZSAoQAI6A7KZFd9OKh4EBX8M/PEje/DLc1NL59zlXlJT6HZBeBAg7Ppv7PjcfrGTjQ2doeCroUurqRn5iK3rj9MraWf/dnrbV+KhNCGBYMnIzl/t/152uLiea6UFd3SLGL6bwxOr7w1eDkSiR99W96q9zEIQBFIMCAIIHX5MGIyBjTdX12dnZkZGRubi6TyXDasNvtjY2NPT09nZ2dfBsVCVIAEEWxubl5YmLCMIyGhga3272TWmtlB1x8cdFh1WzN34yxTz75JJFIeL3ed999t6KiwloVYyyVSn3xxRfJZDIQCLzzzjsul+v1hm+FYRiqqgqCwLv3/SvcBYVC4fr164uLi4QQj8fz3nvvOZ3ON9EQY8xUkfYiqPkyybLc3Ny8uLhIKW1ra/vpkigAiEi/TSCiaEjARELBJtZUyAqwbDJeIVfUVoCDaBTFhTT8x4Pwsmb8/GcDF3sDVTLTENPgb+t0f3FdeD4TrmtyuzzVFaIICJsqfHV/OrK0celk/+mj1c4KxggzmKOr48DNG66R5zO3n6xcOVdjo0RAERCQsn3J0SLNM5VK3bhx4+nTp6qqapomiiJf1I2NjcXFxeHh4ePHj1+8eNFut1vtN1PAnjp1qqqqqlAoNDQ0KIpiFQjWhiil2Wz24cOH8Xi8qqrq9OnTVn1ve1BnamoqFovV1tZadTazGGNsZmZmbW2toaFBEATDMEx5u5OlV6TYl7TAS3a+qIbvYwDDlnCLxWKPHz9Op9OEEFmW+/v7e3p6dop5bJ+lIlW5ZHmOaDT65MmTTCZz8uTJ5ubm7aPYPkzu/zt//nx9fT1jrKOjQ5blvQ9wp16VHFHJ3yZ2MoW2q+67fCjqBCkhBCQAIEC46qkCUWVXOG5cvxe+8lZ9tVuhMhmNZObmc4f6Oy70VdZIusjUtCF+M7fgcrnfvtD0vz9Zuj823dFVSZwUGEwuJV++jB5oqr9wrMbrQAPUrA6z0+vUqDh7OhRdSTwZnT52xO/1ypJBuUN4X1vH6i9JJpPXrl17/vy5YRjBYLCnp6exsZFSqmlaOBweGRlJp9N3797t7Ozs6OgoMmIppZRSp9PZ399f5IMpmj7+UFXVGzduJJPJo0ePnjlzhpMEF+ZFcTkzqFOSnKw8gldilRI7OcPMh2aXzOW0tr59E3BxZPb2e4pZ3u709HQmk+FqRT6fn5iY6O3t3ePnpjUOlukFC4uxuqbm5+dv3rwJAF1dXdbC5lSYPgj+0JwKj8dz5MiRvRv8Vr26aIZ3IjbeYcMwrD03N9IuTRdts+0cx/pQJIAIFOEvlSEBQ8xuCinZH3o0FVlfz7SE6hSvMj2fshnisfYaWTdW0jpVnF8+Xrr1bPTCkfrzJ3tqQ7UT06u3Hi5XOQkinV/OFTTS3VkvUIwnVV2yPx6OPbwz2t3ceOXvDjSE/E+HV6PriVZPNTAAgTGiExDJfm4e5ePUNO327dtDQ0OEkAMHDrzzzjuhUEiSJD5Nhw4dOnbs2M2bN5uamlpbW/lUmly8SCCXnFaTJEzriOvS5u/dpdN3ujo4/ZR8BducMfiqgb1HV8oPJUhNGIbBGBseHjYMo6WlRdO0xcXF6elpTdMkSSr5SZGcsfbKpI0iXmY+LxQKXNfl1GjWZmU9sDWZsE2bwH2G1qzMGr5runiL3OoxO2waRN+5K8wO45YxVbJFUWCUX9WJAIQggCEidRrECbmeXofX3jr7ZHrom+m8LOcRJMgrbuHJzNLN22NOb+fKUqzRFzjR1uSgIEtKVnN9/WDeJeRVQy/QCkG0M0EcnVm/cXNY8h2YW054bM7uo9U2avicIoJkMH6jKEFiIMkA7MNXbs7j1NTU3bt3KaUNDQ1/+7d/W1VVZY6TUsqNk6tXr3I9ln9lDVQUzQj3W1r9wHzNuBOCEMILWBeSL781Lle0GLvTklW2Wx9yBdg0ycxXfPmttL07t9Y0TVVVXddlWZYkSZKk7ylLebtra2urq6uCIHR3d4uiGIlE4vF4OBxubW39zs8RUdf1fD7PxyKKoqIoRea9ruuMMd5bvulNgWnd4uacm7KLO+2tLVJKdV2HV7WVkuALXSgUVFUFAEVRFEVhjFk9f9uHY3UoFgqFfD5PCJEkyWaz7TLPfOy8ObMeWZb5ovPNZhYW+S2diJxEEYAJSByazWHQepd+7rCfdR6KrqkpDR5PrD55Mbuay0tep2qTV8Kz7ZW+373bU+enmzpRU4aNCe9cOFTjRR3Y+GLym5HpDOoBv4tJ9tmZ+Qqf58ov+puaHVkGhQIqKDllu0EMXQBGgYGw40zsMEhKaS6Xe/DgAWfhb7/99vZQJ//T4XBYV5f/np2dHRwcLNoZkiSdPXu2qanJWoNhGDdu3FhdXeXt5nI5AJifn//jH//INxDvzIULF0KhUFEnzbXcPgTcwvZXsVjsz3/+M2Osr6/PVMXN/kxPT9+/f18QhOPHj7e1tZVk24QQVVUnJye/+eablZUVTdMURamurj5y5MiBAwdMXWPv2qB1RISQubm5QqEgCEJbWxvfW6qqjo+Pt7a27iSCOINLp9OTk5Ojo6MrKyu6rhNC7HZ7XV3dwYMHW1paFEUxZ+Crr77K5XKU0ng8zulkcHDw+fPn5ny6XK7Lly87nU6ucPK+TUxMDA0NWaedk9nFixdra2tLjohPhaZpExMTo6OjS0tLmUyGc7RQKHT06NHGxkbu6TBpEgDy+fynn35aKBT6+/u7u7uj0ejw8PDU1NTm5iZjzOFwdHd3nzhxwufzFc0G/zydTo+Pj4+MjKytrfEnoigGAoG2tra2traamhreIv/EvFfM3CwiEjCowQhRCPgJcXilSh8ylBy0cm4yMvk8+qsr7b98ayA6u3C8r72uxobIFhazK8urTUHXhYOOKrvGCKm0a5Oj2tT4Ss8vDvzm1wcnns/1djY1NVcwAtPJwth0pKrCHXS6CNF1QScgUXDtKwzDmeja2tr8/DwAVFdXt7S0kC0UFbYyUc7AKKXRaPTx48dmeR7FkSSpt7eXuyjM8oZhjI6OLiwsmCsEAMlk8smTJ6YKLQjCqVOnitrlrN0Uv+YimaK4qLD5O5vNPnnyhDHm8/kOHjxYVCYejz958gQA2tra2tvbi76llHIX2pdffnnnzh3DMHgHAGBlZWVqauqdd945ffq0KIqvIVR5twuFwvj4eKFQaG5urqqqEkUxGAwuLS2NjY1duHChyJvNwUloYWHhk08+mZub45o8D0TxSMmzZ8+6urree+89j8dDCEkkEs+ePVNV1VR8GGMvX740tSFEDIVCly9fNqeUr04kEnn69KnZqKl3nD59eqdBccF+69atwcHBTCZjyjFe2/Dw8OXLl0+dOiXLr1zulc/nnz17trm56fP5UqnU7du3o9Eo1wgopalUKhwOR6PRq1evcqGKFmt8YWHh448/npubg60NxgusrKwMDw8Hg8ETJ05cvHjRlOFFAozAq8l9AoAIKAMAwc6Qs6vONz8aGQ4EDh3297b47CLJ6hBeMf7f7XCqkLr8i16PA+0UEWhrjbenoXlsfOmJ0/PWqdpLP+8TRMIA1tb167cn1hOJgWN9fg+VUJAYJQhADUL3IU35wkSj0VQqJQhCQ0ODy+Xay54zt2ZNTc3bb79t+jCWlpampqZMfbioodOnT/f19SFiPp+/d+9eoVDgcom/5eHQysrKolCBKawMw7BSKViiC0WqtfVbsJD03mcGAAghw8PDjLG6urq+vr7GxsZ0Oj08PDwyMpLNZm/cuFFTU9Pe3v56ei8hJBaLhcNhRGxvb7fb7YjY1ta2srKyvr6+vLxckkoRcXV19aOPPopEIoIg1NTU9Pf319TUFAqFxcXFsbGx9fX1aDRqTn4wGLx8+TL/MxwOP3/+nDF27Ngxri5xk8TtdttsNnjVQmloaDh79qzZaDgcDofDu4yUr87XX3998+ZNwzBqa2sPHTrU0NAAANPT00NDQ4lE4rPPPlMU5cSJE/AqQ+RUd//+fVVVJUk6d+5cd3e3oihzc3N37tzRdX10dHRubs7q9OKetj/96U/z8/OyLHd1dR04cCAYDAJAPB6fm5ubmppKpVKbm5vWTu5CGMj9vRRQAUBEt4NeutT+f/8jcePrZ1OLNc2tQVmAVCw3Mr62qalnTncdbHO7qC7oDKnoUuilnzemMhvfDE0sLqea2wJOD4nHE1OTkfWN7NG+9jOnqxXJEJFSbp3ijmdrduwfIudehJDKyso9JgaYRNLU1NTY2GiWf/Dgwfz8fMkwoyzLJ06c4ASTTqcfPXqkaVowGLx48aJZpshWtDZXRI3E4ozlHpHtLaIF+5gRy7eFQqG3t/f9998PBoO8Eh4zfPToEdcCmpqa9hicsIJ3dWZmJpFIOJ3OtrY2LuV6e3sHBwe5p7ezs3P7h6qqfvbZZwsLCwAwMDBw5coVv9/PJ+3QoUMXLlx4+vRpMBj0+Xy8t16v9/z581wuDQ4ODg0NSZLU399v1SxM3mfV3js7O60d+PTTT+fm5nZxHem6vra29ujRI0Ssr6+/evVqKBTi7XZ2dra2tn744Yc8ztfe3u73+7fPdiqVqqure++991pbW7mC0NDQQCn96KOPDMN4+fIlj9WbXV1aWpqZmTEM49ChQ7/5zW9sNhvXAlpbWwcGBpLJ5Pj4eFdXl5Xdb6NS/PbkCiFAEAkiMEZEJIA2ik110m9/e+TP96aHx5cmZ1cJpQQNn9N2+UzrqUNV1SITC4yAjBQI0au85P1f99y7HxkZS8zfTYNgoJhyO+nlUwfPn6r1OwsK6gScQAgSgP3nnDLG0uk0153MlADcyg7jDgNicfwwxnixIn+PSQ+mZlhkB5ItjyLdgtWZAVs+Oq7tWHvIuX4sFrt27dp2KlVVdWNjg2w5M18DJcmYd7i+vv43v/mNz+fjfUBEt9t95swZLk6np6cTiUR1dfVrCGpN06anpyVJ8vv9DQ0NnK81NDT4fL54PD41NcXTKvgmM9W8cDg8NTXFGGtra/vlL38ZDAb5h5xJeTye8+fPm+YDAPDEDHOSzYwUq9HLH5r0aY6lSNyRVyNk2/Hw4cONjQ3G2Llz50KhkFlSkqTOzs7Dhw8PDg6urKyMjY2dOnXKWhvvvN/vf//99zs6OviIbDabruuNjY0Oh0PX9UQiYS4T78zm5ia3ufx+vyzL5kj5iILB4JkzZ4ocXZa0NQAAsnUODRlDIHzEiMAAqIjgAaM9KFRd6X7r2IGVmKrqBW9ACfltPplWSGg3kIBEgCIwQgseJld47fWX288cNVZjejZvVLhZdUCudSgOuSCQpAwKABgUDAJARAn2rYHxDcFX0dwQiHj37t2vv/6aD5XTHmOsvr7+97//PU9sgC1j1fzK9AAXNWGumUmE5oxbObR1h5kwLdKhoSGzZmJxQqAl1le0t/jzko7ooo6VfFVXVxcIBKw9JIQEAoFQKDQxMZFMJtfX17k/fF9gjCWTyUgkQghpbGzk0hgRZVlua2tLJpOJRCISibS0tJhhEj7w0dHRQqEgiuLhw4e5RDJnbKeBFBXgs7TdT2tlf0XTYk7sLnOVSqXGx8cBIBAIbI/VybLc0dExODgoiuLs7OzJkyetO4Rvm1Ao1NzczNk3bHlruYTUNM3sgEmr3EwlhExOTpo6vDWGVBT+hZ01XkIoJZRu2agMCQoGEQxqFwEk2hikAbdoEIesgEzQTkFEAKRIASlDwkSURF1kiCCqoSAJ+ESR2gQAEZhEgBJGUGKGnVIAUgBCEUrH2XaCOYYiuuLDczqd6XQaLH4FSmk6nd4pmgevyqU9ipeSVG2Fma5w4MABsyTvDCJyocQXEqDYLv2e2C7VuW8sGAyOj48bhsHnZ78tcksvmUwyxrq6uqzBrb6+vkePHmWz2ampqfr6eu5G5p/kcrnFxUXGmCzLTU1NJaNWfy3k8/l0Os0Y8/v9pkZmpfxAIKAoSiaTWV1dNR3C5tuS6gwiSpJUFE0xhXAoFKqpqVlaWgqHw3/4wx96enr6+vr8fr/NZjMMg39VtC6lqZRQAgCariMAEkQCiGgImEGaU2FsPvX4xXRkbT2XZV53TWez89ShUJ3XBiIBohKqEyaJuqRRI4ckEmPT0fhqPG5oup06GqpCoXpb0GuTURZBpIyBkKdAEcV9iVI+EjO4ZH1uGEZTU9Ovf/1r7iFUVfXBgwemt3AXutou03Zq9zs5NAeXpT6f7+rVq9t3QCwW+5d/+ZdoNPqGMtS3SxVRFJ1OJ98uuVxuj2mxVui6PjY2ZhiGx+MJhUKm5BFFsbGx0eVybW5ujo2NnT17lpvc/G0ul+OZ1TabzeVyFW3fvy7y+TwP5PCDUFb65BTocrlsNlsymczn84VCQVEUU2ibhpJ1U/GZ3y4PTbhcritXrly7di0ej0ej0UgkcuvWrdra2o6Ojp6enpqaGpvNVsTIXqVSrssh2CVCcHMtvpE2KhXKRCAMhQxjaxr5+MbCw5FJhyMTcClBuz+d0u48CE/PxS+81TFwwOdEajOAAhrESCAMz2zMz2UYGIINRbvBCvB8IvpyBXo76zrqHCJBCgZhClBEohPYx9k1Pi+KonARkc/nTUWUu1urqqr4PKZSqSdPnhQKhZKz9toSbC+uHb5U2zMTwKIMWzU6/opYEmteo2Nm30oOzYz78eD73mvjHUskErOzswDAA3r5fN6qutfU1MzOznJPLw+cmsqeqqpcX90Ld9veAf7jtQ34XcBpT5ZlM3/bJD8OSZK4yqBpGg8d4auBtO3+P7OG7SPlr/r6+mpqau7fvz82NhaPx/P5/MLCQjgc/uqrrzo7O8+fP9/S0mJ6TwghW/HSrf1AAAQC1T5HqMo/Mbk819dYUa2gngdiGIJ88+7Mo6cLodaGSxfquqqcEqHpTTb0Innr3sgnN58q9mNHG90CowyZRmFqcXNsci3o8vd1+SsriSDomby8GGHPpl8+H1tx2uvtAUEiOjEUBGCg0v2cXENEQRB8Pp8kSTyrfrsVh1upYWQrZwh2OFplcscflscTi4+hSLLx/fqdPGIXQt1dnpd8ZdIbD/TvXfM0LcxwOLy+vi4IQiQS+dd//VdrLi4/5WMYRi6X40lI1sQgunU6D35o3X53fOeaUkolSeKpTmDZCbiVV8zdkLz/RUlIO1W+U4umBYSIgUDgV7/61c9+9rPV1dXZ2dmJiQl+fJL/+OCDD/r7+80PS2i8AmC1Vxjobv74z6M370TcF5vrAnadGOMLmeGx1eag7YNLnbVBqlAGaFR4BccJHyg9N75+/HgofKCmV5QJIeJamk1MLdsV2tfrrw+KEkEEQbGBp0VQHPVPniy9nIzXnaiWRJCpDiDS/Wu8hmFUV1cDAGMsEonw0PAuyVw/IZi75LXFaRFM+uRKByI6HI49kqhpKRiGMT4+zvXkzc3NbDZr0psgCPyALg9FTExMnDlzxmazmT4YWZYRUdd1Lo5+POAauK7rm5ubRWYk/5HNZnO5nCAIXN7+gE1zE6Cpqam5ufncuXPLy8s3b94cHh5OpVJff/01j0XzYiX2NAFVIeqhXt/EQtX41NL/upY7dbSpLuQYmVOXkuz3v2xr8RI1o4GLUqKiBiLS/m7v8xe107PxWFq1B6Scqi8ljLymtDZ7KwOCTHQZKAWRoaETvaFKWgp4V9fVRJbZPUQATUCBwL5tFUJIXV2dx+NJJBKrq6v8goL/Sj795mCqXj+Ujse5fqFQ4HmOsiwHAoG9f8sJO5FIhMNhRVHq6uo6Ojqs2UtcLGuaNjk5ubS0tLy8HI/Hq6uruQS22+1+vz8ajebz+eXlZZ409yOBoiiyLBcKhXg8nsvlTP+iySg3NjZ4qq0Zk//+MC0IUxMRBKG+vv7dd99dXl7mSSMbGxsOh+Nbh0LJWkSq+x3s17/ocHmVkeG5a5/HJcGZJh5mc1TV+xKJ9H9eu37iZyfr6313vvhKqhD63/pZZcCzvpxO5lS3qj4bmYtueAmVPW67TA0B8hLawKCE6FTI2Ijs9dqja3qmoBtAEHjK/b5JixDi9Xrb29sfPHgQj8eHh4cvXLjAZ9m0HLh1Z8KcI3OarDaPlcJN8rBqNTxll0sVnlFY5CSw6pCmNvgaQ+MNEYsLEbciRoZhcE+MWfN2xsQVDWuGBjerYrHYwsKCYRiBQIDnu+ydqSHi4uIij/UdPnz43Llz5pYlhPCMXET0er0ffvhhLpebnp6urKw0dbyWlpbJyclCoTA6Otre3s6FUpFZXrR3rR3j3gfcOiFo7ZU1irbdiLCqJFbFxCzmdDpbWlqGh4c3NjYikQh38pmhWl3X5+fndV1XVZXr8HvUbopaLPnDHL65D+12u8fjiUajsiybTilE/Ivl8Bc7B2XCvDaU6l3iu+db/v7vjh4ZqK6rlOySpmIhB7k796YAAAuSSURBVJAnhmSXKQoCkUFwaYZAGKEEKOW7QUVdF4GpusYAGIAAFBAIgkApISJSGQhhWBAIUKDwrdOIwT6vASWESJJ05MgRHru/d+/eyMiIeccHbjnfeMY22UqhLKJY65qRrXCrdaWLSnLNh1K6srKSSqWsM65pWpHo+04C2IlIeLAbANbX100Vke/I+fl5nmq/S/3cBFheXjZdUJqmGYZx//79dDotCEJ7e3tFRcUe7XBezDCMqakpTdMcDkdDQ4NJSKbGy/9sbm5WFCWfz7948YLbIBzd3d0ejwcRR0ZGzARd86yCpmnLy8urq6vk1WxKDp/PZ7fbDcOIRCLmCRL+ocku8VWPTlH/eUPWt+bAbTZbT08PV3ofPnxophzwNV1dXX348CHnPt3d3UXx511mzFrAupd4nffv34/H42g5t8h7GIvF4vE4t4HNwH5pWYpAEUAEdKIuS0ag0dUb6tJUuPUs9u831iLL6ZaDwb/5u1+6ZaozcvHSGQ0wnYelxZjDCW6X7Hcpp4/0ziwaD8YXk5t53fAwIgEAUEQiGuja1CGRScqKKglMREFAmQAC0WE/Pl7Y2uKtra1vvfXW559/nkqlPvroo3A43Nvb63Q6GWOFQmF5eZmzSUKIGY/iHyaTyVgsxp0ohmGsr6+TrVShmZkZAGCM2Wy2uro6qxdEluXu7u47d+6sra1dv379+PHjFRUViJhKpaanpzs6OqyZ+kXysCRK5iS6XK7q6upoNDozM/P8+XOuXqbT6ampqZs3b2YyGXN1t29Nzmui0ei//du/nT9/vrOzU5blVCo1NDR0//59QkggEDh+/Ph+j7BlMpmZmRnGWHV19fZ0CLMPgUCgqqpqYWFhaWlpdXWV0zMiVldXv/XWW9evX0+n059++mkkEhkYGHC73YZhbGxsvHjxYmhoqKGh4Xe/+531niqOqqoqrjDfu3eP5x6Qrdz05eXlM2fOOBwOsNAAP7TEn8RiMZ58try8bK6jLMs1NTWm4O3t7R0bG3v69Onw8LAsyydPngwEAqqqxmKxmzdvct5x9uzZQCBQUlDvcQ7JVsTh448/npycDIVCx44da2pqqqioEEUxm80uLi7eunUrHo8DQGdnpzUduhSVUqahLoEuI0qMMBB1RCZBf6P7a1l5/CjcWufurhIlwxCYADIU8sLQ09WNRGygv8XjkCTQJYHUBxV3hRRZWm3yOVwBRaKMENSQbqo0vLa5tLZaX+UOemSR5wcSRGKQ3ZKKSwMRRVE8ffp0JpN59OhRLpf76quv7t27x5Ow+WE/noHl8/k6OzvNfCNEfPbs2aeffmqm+Oi6zpnol19+CVsZapWVlf/8z/9s9UjJsnz8+PG5ublIJHL37t0XL14oioKI2Wx2c3Pz+PHjoVDIejHKTgzeLFDyrd1uP3r06GeffZbL5T788EO/3y9JUiaTSSaTHo/n9OnT/CoTc/mt33L/bU1NTSwW+/DDD30+H6fSbDZrGIbL5bp06RI/mrdLTG87FhYWEokEIaSjo2MXJ4osywcOHAiHw9lsdn5+nqet8yaOHTuWy+Vu376dTCbv3Lnz+PFjnqmfTqe5wpzJZNLpNNc5rR3z+Xznzp27du0anw2Hw8Gz8FKpFCGkqqrKdIcahnHr1i1+ug22rBg+w//5n/9pajpNTU3/9E//xDcDY8zpdJ4/fz4Wi62srDx+/HhkZMTtdquqmslkeKjp6NGjZ8+e3UlQ72X2OPhO4+co5+fnFxYWbDab2+2mlGYymWw2y/3J7e3tly5d4pPM6y/pPeJCTeDKggBEIMQAVhsQz5xsuXX36Z/+PLJ2uK2t1kUIy2xkh0c2nz2Nel2OkwP1TgkEgoQQn4t2NXpGpxaeT8wnm0LBgF0SqGGwhcXk1ELEJpP2pkqFclWYG6f7i+xblQq73X7p0qX6+vqhoaFIJKKqKg/Zy7Ls9Xq9Xm9nZ2dPT09dXZ1JpQAgSZLH47HuVNOq5I4Qa3qw2Sgi1tXVffDBB3fu3OGGFj+LCAAtLS319fW8JJeQ3AVt5rubS2Xy4GAwSAjxeDxFVjEh5OTJk7lcbmhoKJ1Or6ysEEKcTufAwMDJkycdDkc0Gk0kErIsW+1nAFAUJRAI6Lp+5cqVXC43ODi4trbGNU+Hw1FbW3vq1Kne3l6rSfmdU807HI/H3W63oiitra3bU7hM1ZdS2tHRMTExkc1mY7GYdUSSJJ0/f766uvru3buxWIzTJF+IYDB46NChgwcP8ij39soHBgZEURwcHFxfX89ms/z2BpfL1dTUxK9Ew63j+A6Hw7pqhBDzrjbT2OH+bT4t/KvW1tZ//Md/vH///ujoaC6XW19fR0RJkhobGw8ePHj69Omi27AAgIflBUHgy2d9xfXwQCBgt9tNkch7WFFR8f7773d2dj5//nxpaalQKMRiMV5AUZSampq+vr5jx455vd5XZmDv1nAOYCUPX91/ef/xjMrszgqvQFErbOYzalXA/Yu3O/vbKuzUEIkBKDAUMgxnIvHR6aWsTolokyQJNa2Q3XS77d3tdS3VLjthCjEo8OtcCHndmz5N9a9QKKyvrycSic3NTUqpoih+v9/r9XKNyHpuEACy2SznlCUHS7aybd1ut7mnzfOKAJDP52OxGG9LUZSKigqeNcJ3MC+TTqe5ju10Os2djZa7M5LJJH/IE1/MzvDorqZpa2trsViMh919Pl9VVRUPaWQyGcMw7Ha7yXH50HRd5ycQ7HY7F6HLy8vJZJKzpKqqKpfLZWac7mt6s9msqqqUUutYtlMUIqqqysWCLMsej8esxBx7Lpfb2NhYW1vj2ZF8XDwpqqQTlW3dNpzJZFZWVpLJpKqqdru9trbW4/HwGeDxIcYYVxmsU70dJv8lW0lCvDD39Mbj8VQqJYqi2+2ura212+1mtmNRr1KpFGNMkiSHw1F0sxxfCP7E6/WixU8GW1mTyWRyY2MjlUrpuu50Ov1+v9/vNyNk1vL7oFIDdQ1JWqUT88nhiXg0li2ousvlaG129HX6Q0GHjaBCGEGKSBCICqAiriZyi6up1GYul83JklgZ8ITqA167qBC0EaSgUwD8lkpfM9Rp+nvMHyY1FpmFZj70dsu+CObVKvjqzTpWScgfmv7AoibgVQ+klTCs6aBYKuG+yOxkW1dsMMs1OdtHgVt+YPND64h4/UUN7QVWAjNVmJ3qsc6PderMSsyuWt/u3jGr6W6twfrE+n9rJdYPrXVy7gmvbhJexnqsouRZiJIzY83ZMNsyz/0UJZCY9VtX0Lqm+Or17vugUsZUAmiAlNGJTuimhgZDSUSHzBTKKIICAgVKCWFIEAAJMwB0ICojGkPdMERCFYlQIBJFEZGiTgkAACMUgNDXvY+35L40/7QuqnU5YWcSLdruViq1FjCX1lqAbAG2NB9epmgVt287eHVLWVkPbNFYUbY3vEoMRdqvtXIrKyH7/FdwrOqiSerwKrO3Tp2VqLYzuKJgBrFcJrgL+2A7HJo3qyr6/Z2DKrlVrCiqcBf2YZKi9bm1J9s3W9EGsDZqfvuaVAqISIAhICEIDIlOQQXQABUCCkFCkX57ixJhyA1OAIMICJTBt3EWAiAAUkQCjADwW9GQUAQqvO4/E1Nyiku+2qMMKWJ1RV9t3xnbmyvi90UrtFO7RfWUlIfbpej2Cq0Ftn++fUTfiZLd2Kmeknxw+1Rsp5Pv7FXJRkvy4n0NxwprT4p6uHs931kASq1vyd/by++VSgHAADAACABBoIjfnhEHhiB8++80fVslA2BAGAAQ/i87AWF/iYWiwAiBLWubUCSAQGD7P9tWRhllAMCuN6oUg2z5YfnVoOTby5EELg+BIADbujhpqxRu6QqvcB3Yqolwd9FrytAyyvjvgf1QKQMBAAgSMJCgIXDKIwQoAEEwgBgACECB5+UCfKvREiA8ExC42NyS+0D+8hPYfoMxZZTx3wT/H031m9mQUqVPAAAAAElFTkSuQmCC;" vertex="1" parent="WIyWlLk6GJQsqaUBKTNV-1">
          <mxGeometry x="887.25" y="210" width="185.5" height="31.61" as="geometry" />
        </mxCell>
        <mxCell id="TotBF1mNxbMJLCwTNOgZ-33" value="" style="shape=image;verticalLabelPosition=bottom;labelBackgroundColor=default;verticalAlign=top;aspect=fixed;imageAspect=0;image=data:image/png,iVBORw0KGgoAAAANSUhEUgAAAKUAAAAqCAIAAABdrwyAAAAgAElEQVR4nO18aZBcx3Hm92XVe9093XPPADMAiBsgcZI4eN+WqJOmJV+UbMuSvKG1ZXsVsUfY/uG1V5Y37NjVOsK2fHvlU5ZES5RMWbQuUqR4n7hBEvc1wGDuu49Xlbk/Xg84BChLdqwlbiwyJib6Vdd7Va+ysjLzy8zmFV/6GL4TiQGAEQYYYAQMYlAChM13SyPEEAkllOB8O1/vmZfp+0L+u+lkF/HMIEASgXwTzLO86hEEzuAVYpD5ey/TG4e+K35jXrIxz3gDGn7+E6GACsRQDEgUojAiCKJA7LJ8v4Hou5XvVz9b80oJZ6CakAqYgYAoCIBUIgpUIPH//qQv07+a/gX8JmBmTsTMoqkKGS01OjUAStQdqh4gxIlFc4Dov+XcL9O/nL4zv+218q0xClgyWRwLV7T3LO9c1NlSKbokmM7UqseGzh6ZHhrMajXPCyr8Mr1x6GJ+E68a4Zw3ywlEUwBilposL7bfs3bnXT3rlrZ1leDcqxraqhvi4ZnRLx/b9dDJ/QOoVv0F255KA+guGPaX6ftBXPFaf4wGJYLAgEQBgwqCBXEi0Xpj+iNXXv8jK3esTloTEzjkB7YABCJAgIYabPfUuT/d+/WnRk9WHS330IRE03S3y/z+PpFrf++dC68jEQkxpAFe4QzOAKEETQzX96/7yKY3r2bJSAobRCRykUXORUIMDugslrdfsaGloQfHz9VExbliw4oBmSCT5slxmb739Dr8NiANcAYDoiASEjU1VKJMz0wfnR1e3ru0j0V1JJAAJBQgQYK5iINerY1u8+LlWeqODJyqIgogyoZDIPxlJ+37RBfzWwFnSBRKm/VW9zAhYNuLi37puh9805qdXzu++6Fje7o6u5cU29JIMauK1ghqdDnHCSModGBR3FXt/QBeGRmYkhgSQkhrnv+X6XtPF/Pb0DzDM4d6Qg+2Ve3N3Wt+/aYfvbbS11cs37R84/TszN/uenhvdbjc2tZTrJQzKSidCGCcl3HL5R0sB67pXXp+evzI1FA1pSjTXOdfZvj3g15Hvo0QQxQY2Fa3O3vW/Ndrf+iKQkXJxNjF5Oqlq1csWvLi6cOfe/mpl6bOr2rv7XEtJgiOEOYmGwxsQm9WFLmiu3/P6cNDcQ6GxJhr+sv0vSfX+t47FxpPQRCEqVIMCbgGLR+9/d5VSStIkg4UsgBZ3dJ12+otvT2LvnDomZWtPat7+pyQeSdc0OIAoUQCtialkiSPnz8MRxdNSSNgFgkz84pMLImIgkADEQVpRBSYWVFZdQqYkBmiCXOwB4AYYZqJeUMQ1Jw5NW+INBpc7gsIIkxNVfJ9RoU6Bc3qYiYWYQQKSota90bAZ6rCILkqM6eWRJstgAY1i7Tg0dJAQ0wFMHhF1Vk+qAnF8oiSiZozREEGjY5RAIOokUyDqdBUaQgEgEAjMeeNpFcLDpGIsNQYxQLMqaljQ6wQYLTcda4ncIZIwIxmaqqAAwItODoFzKLQCGcAL/jfbIqbMyQqStR8bIn4ke13rE4qJEkKAIECETBYZ5TrWpe1ZVzR0RuFGi0F4S6wGmiC66TCCe5YsXHV6WcOTQ/l0bN8Wt7QI6XladtcaqnascbkqNYozqIuTdu6XNEEScSuMJppBK2oZFA4LkrKi5IyvJxvzE7OTscYGyVJDCQS8KqWHoBOIWYKRIfpWnW0NjOboOHNKz3hItrhlxXbK5XWmmZjM1Oj9VlGrVOzorSp9wZGnS3KpDZKgQm4JHoGi56DCCoaPMpwrZGtQaY9RlBviVY3DV4KAcsLbR3FMgzjM1Nj9ZlZryEhCDqm0TZXFs05hVpi0vBIIqqhMTU5ebbFMhc92WKyptRdiDTVKQnHq+PRi4+6qtC2OEmrRQm02Wr1WJxWQ4vK0rStr9hmwuHa9Mjc1JxpBElkMCOluT0uwVvEmoKVCdaVF93Zf2VCyY12mRdZAi4CmU1arFlsK1TYbH4dioAnEkOHL9y6bMPR/eeDlyAA4BWFhr1p/aaf3fgmBwPxW0/c/8To0XoMJZP377zt7cs3Z8C41f/z4397bGrYQmxRt6Gt7+4NN+zsWdktBedYzbJnJge+vvfJh6dOQqiCRaW237zlPb2+RQ0JkCqMmNT6k+cO/8X+Rw/FKaHzmW7rWf7Tm+/c3tqXOoFxOtR3jQ88dHLf04NHCuXyR6/7sWVIHPiNyZMff/ZLRvx4/zUfWH9zqpaJffrkrvsPPumDfWD7bXf2bWhVVMlfe+IzLzeGWtTtbFtx7/obtrUtLfkkE45m1T1DJ+8/8MTBqfPVkjRgWyqL/uftPy1gEXSKTJAqxi0cGzn9yQPferp6LqRcoaXfuvnefleehr14/sR/f/rvh7xuKnZ/9KZ7V6dtk6LnNPuDb312ZHp2cbH1g5vvuKl3zWKmcG5MG0dmR58/9co3ju49yplGURKFUygX8DuPgpBsOERBKUN7nfes27oSLQHmIh1gkuNiJoYodirJ/u7g49OWBcsKBoHZ63E9D5cI4A239V35qd3fbDiTHMYRFBzbzK90BUabFfPOT/oYC451FOn7NBWiJEgMMKsE+cE12z6w5QeWS7EYCYEBSNKunnV33LHyE4ceue/lp+tmlZr1+OISFqLLw7IGQ3eSLl6+bUlH70cfu+9UmLm2b+2vXPeuFSx6552pkK0F391/5Y19a/705Uc/d+z5VnJd0gVwW3ss0tWotyxat6bQlohQcefSDZ8/8EQqsqN9+cZCZwk8E6ZHqtPO+x9fc8PPrb91ERKIKOHMelFZ0b9ha9/qT77wta+e3NMoQsAeV2wBfTCQQcyRbeZX965fcXv/rz5+35PVs4jax8JipF1ix+BSxXIrfeTad15T7C5kLGvjsy89sWfybH+h9WO33Luz3JcACgvkYle6onXZ9VuWXbFk5Uef/Gx0SBTOkBHGSxDunF0qcE5627qhGg1Vb1GMwVxdGbRq+vz4wMeeuO+pEwedc2OzU86gqlFeR8QvNAm4ptzR4gu51hBFFNYS1n3zXCFggkiYE3WIhAohBBiFPuLGxWs/vPWutSylEeaYEQ2iIVbO0MnkQ1fdcceSq4IAMKohRIk6a3HE25RHUCsbbmpdes/q7WVzP7bllvVWLkdh1DlyUqxhFi0O1mefO3pwItYOzY43PEKCjrTcWygvYWlTZz9FIkDD+kLnimJHl6VrWztbFIx6cnykGhvvXrr1Q1fe1iMphHWiSm0AShQgy6X4Mzvesr1neckkwgxwRpjVGIdpI07rImJY49ret+nWDvONhDNiVTESkayY/8CG229pXV4wmfP6hTN7P3fixekC7lp7zfby4sTMYA2zmmmDZsIA23V4n6lZVADKJqZ58XmeRnhFEDQQ/+SpL82sve6G1VvaWIySuMTmYnZkbvTLR3c9c+Lguq7+X7nzJ//m+a+8NDF0bc+qIn2A+Uvk2wMwRIESnZoW0lQ1c4AzqCEIGoJIwFNpDKEtk0YWWlQkWnDwABSm1u2KP7n5tsVIqFYT+/LpPV86tgum71i34+6+zZ7SZ8m/23j7MxOnatFIqhMDnzt/5JP7vtlTav0vN75rKYvFYDctuerRY/s2ty7zc4aUx8bOfXzXg6G99Jbe9TddsfHRUwePVce8x5HRc9azHsYlSfHKYnfwsbfYFmjOGAWdUljfueT05FCPr5ghgLtnBrt8y/s33raIXmGTFh889Pxjp18OJX/Pqp239q/rMrdaSvduuf3AY5+BIQJKBM9/OrbnvmPPpUn6i9vetr11cRKxo2vFkrR1MtQjGAUClCLeunzz3au2VSIb1EdmzvzO/m+cKYau4K7vWp0aJGDKxd/5+n0DUt+wYu3tyzeOZrVHB16yBGkwE2TSlL2L+W1AJuYVZaW1Fv/u5AufOfT0mrbelkrbuGRD02O10Yn+StcHbnj7W3rXl+meaut9buzE3dy5SGmUMP8QAnkcxRny18vQTHqJBIBE4Q0232hmzmxL97IoAi9JpkuKFQEQkQKFiGXdy7a29aeR9ZQPD77y289+6WQlFiJffnLAbsa7l2x1hjWVnm0dy06ODZKgkWaTjfpzM2fT0fj+6p1LKgXzaE1L/dKSkLEAE3R3dv3AmqsfOXfoz/Y+8smjT4/H2kRiXtxL46dpYkSi7Gvr6i5WElOfn8CCFHLV0hWW0JspRVWPjJy9pX/det/uI6pi95/Y9XsvPzTpNJ2xl4bOFG+5966OVcWIzV1LV3QsMlNvEEMQDGQzu2YH1eydg6e2ti+mWVmSnmKlOlUvG8qBwdn61s5N29+c0oM42pj4oye/NIeQREshRecJmoM4ufGa6x46tf9rh1988OAz2lE+n0ZRS00yIAq8gQYvC8OdZgTqLgp4V8faD9/wTqM7PnLq1PDw2bnxr507vHPJmp/f+o6Vrb2lpFgM0YzX96/9xDe/8JG5v1ixeMlG19VSqfhgJ8J0mJj8hWve3OEKRkJpQKI2ZY0YQvTmjEoa1Rk8TACDJSLv23DLe2AwqNBMXQ4GKBoOW3uWtVHqHjPAw0f3jvrglEFsKsGDJ/e9e/EWI0uUbZ3LTo0OVs1MTAztPt3U0d+dtvSnFWZKtWqsH21MjGczvdKamHW5wntXXfuulduONiYfPHPwgSPPihMJcWBiZJjZUk0CbU1X/9qWroIxUz08PrSia5GI7Oy4olyPRaWJjVj9/MToLVfe4AGQ48i+PnBgOI1OASfjofHC6Zdv7VlVJnok3dC+5ODYaRpEkRJ9vuXq0qKSS65atCzPJECIU41q5ukMJB25pL27ShVyDtkfv/j1XTZWhFWC1BI7PTd+Q0sfE1eEe1Pfujt71w5l00+PnnzgpWfPNWy0TA/kjm7zuCUJe5XjYqg0cHXnkl+48Z61viUjVvVfNd2//jOHn10xduojV79ts28TQILS2PByY/+VXXd/cNfgkd1DJ39nfE+7JSvSNm0pnJkcuWKg/4dXbEtJyTU0MVibrWWNVIRNtJ0wyz1BZ8IsOrOSCA0MgLhcCxihsI5C2Rm9WYY4MjMBstxgI0HNc6Q2XWNMxDuwNS0LmUZzZgBvWbx625LVCaQSEQUxxscGD5/g3Gd3P/JLm97qXUHE6g4msqHYtWr1TW+5YuPHHrtvjw6PhuqZqZGllX4x7Ohe0VtqEUNd8MCR5z943VvamK5o7S7S5U7OeLV6dnY8LRVBIihFq1PThQgHKmy2KMfmRs1UnXiip6UcxvOAITLB29buuHPt9jmgWy2KmNlzkwOnZyfKaaFBRE9vAFAKbIhFcYuKbcVhm02sGOGz+PlDT6/o7d/BLuSZoh6drvKDy7bc1H/l/9j9T/cP7FWBADoPgl1ir6kuRfHfb71rhZQkWKooZFY0PHT4hbet3bbRtTqDwWg0ETPtUG6vLH7v+pt2LF23yAofv/neP3jzB//wlve9c/U1jx7ePRvqBKKDNyh4cOr8rAWvr+O6qamKjCR20menksZQEuY0yy24QDjjRH1WzRAAsNDW2hBVQcOjmqC32Bq8gKRhXOcIFkh1zDxTuu66tDUQHANsb3X4wVeeY9DPnNvzKy/c/8W5Y6MuekM5MAlWpmwodLxn6+0kpiWeGR8ymgjXtHS0uQKB81r9xvlDZ2bGaGiXdGW508xAnpweGtf6dFbNxMyLE2kvlglkgrpHgHZ0dicmVGTATL0KoQFKwFCO1tNAf0TRANhgNvtXBx+bZQxmBDIABgXMLBMklB/bcsu16SInbs5DyF0zg7/xxH2fH9h7Vqs0KygSUMx6kPzEhluXsJTM5xo4BXEJv53hxuUbdrYvLUSYiBIkj4+fHw/VG/vWp5EAHCR6ZmIi4gPTiJdnhv7xuUfft/mOa7qW96K4SP09q3eemR57dOCwmSKqBKuZPn72lUYqvNSMJzKHGWefeObBn/nC737wHz7xgft//5Gzh/LMVwUIHBk+O4lMEwB2+8ot3TExVafoqvPtyzZXVBitDj0yNhhMPcUFpcZZhHEfh1w8HeYeGDn0a09+fqA+VS1wcXvXrIX//q37PvT1P/9fLz20e/Z8w5FqAlnXsaSVaYS9PHiqRqsT3sQbFXZgdOCIzB4YHcjVU8U8yAw4PDpYFXtl+MwsYLAW+OtWbqoEegPVVjQKdy5e7wBGTGh4aWbIK4wgUVTM0UZddGpicNFePPnKrsHj0SFzVgITswidZvzm0JFJWBp0RVL5D9e/Y3FdYsI50ZJPVrYu/t3dX/vgV//k13d/+eHzRxqqPiJt2Iq0bUWlR6LaggzjXOPwQhZiQeWO1Ve3KuFEHQmqw/6pwUpLZVm5LTIHQlFzIJgoSEx7/bsDz7b19fzwym0pHQQUrnMdd27ccf++b13Xv3KZr7hgx7OJp88fiV4Er01bb+oVSWETWe0k5zInKTCOCDRVjVPbM35mz/Twzo6+csa7e6+0LW/91vH9MwhvW7f1Hcs2pw0Nngeroy8MHS+7tE6L3jVgj549/OcHH56R6Gcap7PpsaJ5D1I+vOrme/q3PDdx8sun9u8/d3JudKL/xrsXI00CysZUmXg5PD00RStTvMARDeDF4RPTTp8bOfmuldscHWEgZ6H7xk+r53MDRwY2TLaxrWz80VXbUavtPXMkS9w712y7o2sViaC6Z/b8ixNntqQ9eaKARXzlzO6vDhz81Wt/6IqkkiFeu3LT6qNPHaiPtKRJDMEJ6mJ7h0/95pOf/8DNd7+nb3OquLbzip9ad9PvH388mt3Vt+GXr3nHwPTIgwMHdo+cHh9+rO+6tvXtvamjCUAaXoN4Xmyfd/vi5rYl3piDujn6M1idam+plJGYkBFK+AvwuMPR6sSeky//x5vf3RVdjp4HGIC3r9n53ImX/2rftz68/a2difva0X3ntZqDshdRznqfG+qYR90VmE+YoeEsa586/Piane+uIGlX96Ordrx91TU1Wpc5D4IYZfzUK0+e1bl1cKYmqolDyLIjY4OjJauoFIzOYIJr2XV735Ut4u5sXXnj1SujBpDeuQBI0OGZ8UmtB+BkY3KkNt1RaIcAxhnL9g+f8uCeiTM1DZI4r+YVs6JHp4ZhdrIx+ZlXnvxPG+/qCr7X/Ac33dbYcHNGtMMXDVXBtNNP7XlohtEZaDBAhUON2aeGjn3h9N4Prb2JcD3G92+69aMvPGBZiC6HgzkV47APn973yPXdy9cW2n20H193/QsjJ45NnH/36h096nqLves3vmnaotfQYanPYLSRRm1wbiLKgioRNDNTXv3rKrW2QggEKMwYDWaNkHUkRU8RM4FltDSYNxNYFLxw5sjyQvttrcuMFogGIUBBsVUrP7/jbY+cOvDV0/v21UcfeOXZOs3lVQr5aPOJMdFQB+pEXSwIFJC8hxkNCnOGOdEnBg59evc3z0p9OoEA3THpQ+oMVeGQD3994JEHTu2e81YwF0lzzPGflM68Gy9itAVCMfL65VelPp0Ti6kUKWWflpmUAiN4wmWffuWp2QQRNpZVB2fHBaAhmJ6dnTw9NSqGs9Wp0xNDDdMgVNi5ubGR6oyjm/H2hdN7/ur408NpyBxKhm71fZakZtNiA425P37hK88PnzAzhRGIsKozo0Bx/+FnDlfHC9Ec+Jb+q3b2rHTiGrAgFDDAvPFwdewv9n1z0iLIPlf62R1vu7Fr1arWRXMetYTFLPZF140CHGspxxJ84/ie4dq0zktXzPHz5rFKAjCzoTD31PjJq9v7ClLIY0NHp88fmD7fq4nSMrMUJGBqwbGmtndy4ItHnt3Sv6o9bZFgNKhAjQLC4freVbdede3/3vVwS3fnaZ0TkeAlCg3mA8TMRatHjAFlw5BYwznAgUyDDSUYF3pgREBzhejmEvnr48+9NDf6rrXXX9d7RYdLFZhh3Dd44m+PPfvY6NFZz0QlUqYdJ4gAzjjWhACLkbm7n5h87sgLI7Mzty+9alPv0ra0XIQ4Ys7b7omz9x9++lvnj7HgCooQ7fnJwZU9K7qVQfDs5MB0DPWElQaeGDvd3dOfAubllcFBo9QcxJIZi3+5/7ETI0N3X3Xtpo7+sksMmIj1Z84d/9yhp/dMnp1LPYG6c2MwhdXAabFAnm7Mfuros7+64c1zzjmk71l/y++98OCUcEJgQCBhbDj5h7MHt6/a+Jbu9YlhVWvf+v7Vv/XwZ69dt3lHz/L+ckcBAKxBDNQmvnJ6/98cerLhIGrmQEN0EAUX1o+ZWRRrD9yAtnJLxRI3V6ueb0xPpLautffPbvypijkj60RV48mJwS+e3vPw6f0DUv/ljW/+uRU3RrIAChBhDRjNgulHnvncM6dfaaTScFCSbOaupRFBLAj62bIuK3lxs95O1ScmkUUiMS4qVJZqKY1W9XwpGx11wZM0uIjOBpeXOjtLlehldG5yfHpqyGXB0VMaYmVz65KOijpEHXbZy3GynqAU6A2ByBwAk0Ysw/Wk5WW+rbulgmjj9dlj1bFB1oLAQQxIonW54hKWS5mp46BVTzUmYykpRvYgXSQtJRUBB23uCGfrCYuBmQdMyw12RLe00tVWKlvQmenJ8/WZMR/mEoAihlZza5POzowN01OuelbngsaST3eyqyqAYTqJh8LEJumsBBG1cckO6cQsYkVdH4rL0vakHqtFGUrjuanRokmn+EWl9s5iJU38aHX2XHV8uDZbd4RQYSaiAAjaJfxuOG2v2T2LN67u6ZeoXUlL/+Il+6pjf/TUP2ws97YWSpa4xmx1dGqipmFd79IbN27/+/2P/8SSq9+z8rqQIoEAoKoaxp1+9fju337+wWqCzEEld7gBgIZEEQS1BKbWEpBBheIAxrxQRdQxM00zA1FziI6FYDRT0otjVJCRiLQAE7LYsKKy5jnH4J1zSq+W0WqeArQEKpDH5cwiSDMjWIqEGggV5gVQNDhrnnbNUilTIanmxZlZgAUHobhMU0MDVk9JsCXQiECjiJnSwGgEVEhhVCXpjDQ0qEKWMgCoOVPTgrngUcpgZg1alkpUKxmDIFUGWFU0EVeqWxSjWiGy4TCXQonECEKCpipmmjnUHQQsqYQYnXOvMZIuNp0Urb7w7o23bO7sTw0FA4GtxZ6ua+/5w2cfbG1pXVHprbQl69f3LulcvLbQ7px/zO861ZhSscRIjYAwQmlPjx3/gwMPT6emwmbkw5q+f56h7AxpRCAbDmLOiAYBT6h5A6JGhywhQYGJgkZvBBiiQghA1DwYPQQ0z6qaAEX6oBZzZ5OSmIlCDMGBQBqRRAdYjmBHwlyeb2mpiTQQadose2M0iw6WOAtGYZ4ZIU4cYGrmJagBTBRicAZGS4QNVSNdE1HmjAMBR8kTsZUQCoCaNyUg4qNItEJkg5pC6MwpyoGRiA4NMYIpnETL3SNzEggChWiY37l5cgYp3mAKAJmZeBfVhMxj2XoRv0lWIrf6rg2tPSVDzFOSFBVJegsVD/nF7W9fU+yIZm3BKA4RDWJ977J9508Mu9jLxBFQm/H6zaHDH3/6gZOYgU/ynBc2TbR582Ge3x6IRBphRM0jy3OiDN7oQ7O/zadB5iKYAzY+D+EaCpGJouaQJSxnKGYIjrDmmAmIeYCJgBENhyCMgggkMa+FgAAweIEy9zzgFA70BlVQmY9uhEQkimZS9bx6yocInjlikRuhebZPITQdDWMzZpxEeEUURsAiaDBSgeikBhjI+aOoFIB509rAKMhTg/JzKI8+57vA2Aw956ksFxJgcgWq8yJ+sXwHx6SrPaFLgolnJDIHGg4Pn+vr7l2dVCqZGS04ghABiR/oW/dP+58+ODl4e/uyWerhOP25g0997diuETTonaH5Bs1qlfl1b4bf5xvzqKhXeG1OOk+Dz5NhnDYLIfKql/mgPVSggBLFAHHNbw3IBM6aAFaeWJ1XUAgQCAiU+bn9qr8HNvFIanN6mYDzte/BNXkmBhBBmlhVPkQezA2CzAGGPBZiyG0FJAqbjxIJQAUNQZotzgAgk6Z+jYIkQAy1pFlZnXfjfLfcX4iEENSm7zq/+S4IR/5GTVDlQsE2Dd4WgOcAnFopSVWIaGLmQKoFxXTWaG9poxPkNgeRKBgBj5gkYwX7ywOPyJY7dg8c/cdTe4/VxiPNi1yoLJgfet71NzTlNZcMIgjEkBqcNtmT5zzpfC5cvoLUZu56/noxVw1AEIjCR+TZSyEH5tjseaF/c/NpcyAs/MkCQmk63+1CxVMO70dC5ofWPF+MzUIZzr8XAB/zNQXzyo38JMOCyWhzE+fiS3vVE+b8lJrAZ34mc4HfPI+I0Jqp/mLNA8NBF1ZmNhXHazmbb4WL5dtFZdQ6DEaJFkTz/EAHZ3N1NSAyMN8m1qC9NDv22098fjw2Hhs5/syjp+saSFKcLBDli+Dypu+/YDK05q8H6IKFvmDZ5VrgQnu8CI21ZvJGvhY5J5zOr9H8k/LnXKCIZshoIfaTi6zNR2kXUvKq8AD5sWQLrtEcTl87w4VlNBdKZZuCPn9pC3rmX2XyagsXPsReHSK/8cJA8bVo5UVLxAVq9NJ6QY7PTs8itnpxkEhExOONqYPV85O1mVoM7VLIccQJ6vMTp//w2Qf3VYfNoaBiqiJiZmbGeS14yR67MNDrf75wwUu/+meew/l/XND47Yb49s+9cB5c2s4Fn7/dvbyk5dvd8u16Xrj45178Oy7Kt7mDl/K7mspTc+f+2zOfX1nq9N5XQ2N4bPTI+OBRmetm4WiYkUKSmZ6bHv7qod1fPLFroBg0ZUGZCSLzegOqqvwrJnWZ/u2Jyx74jYXXeSpqMTQthTx9sSWzzMEH29reX0lKw/XpocnxGnSyiExQziCKmQJoKLxegf8lB/C3FfrvPV1aof66P1HwGvleEF7CgkYA8VKV+Uai15HvVOGjGBEcTPLcY8w6jaZp4ndPDzqDCUOKzCEKCiEvNmsuiV2yWpfF/A1FnryYI8Gx4WACH+EMEhGgRYiZZimDwkcT0IFJhACZhyCD8TsAAAB2SURBVAGliFddggV0qVZ7Q9F31vTzjd/NW1y6mG8oeh35VoJQZ0CEWNM3LdKZquXOCRkdYSYL3GjO+wCX0hvq9L6UvssfmHndt1j4uhdM1DcyvQ7eArzqU9q886cwOAJNEAqYj6flHwEs9KP+f6DXJv39P0T/B7/HpUhaQ53bAAAAAElFTkSuQmCC;" vertex="1" parent="WIyWlLk6GJQsqaUBKTNV-1">
          <mxGeometry x="540" y="484" width="165" height="42" as="geometry" />
        </mxCell>
        <mxCell id="TotBF1mNxbMJLCwTNOgZ-36" value="" style="rounded=0;whiteSpace=wrap;html=1;" vertex="1" parent="WIyWlLk6GJQsqaUBKTNV-1">
          <mxGeometry x="1132.08" y="474" width="157.92" height="62" as="geometry" />
        </mxCell>
        <mxCell id="TotBF1mNxbMJLCwTNOgZ-34" value="" style="shape=image;verticalLabelPosition=bottom;labelBackgroundColor=default;verticalAlign=top;aspect=fixed;imageAspect=0;image=data:image/png,iVBORw0KGgoAAAANSUhEUgAAATIAAAB1CAIAAABCjvryAAAgAElEQVR4nO2dd3gc1bn/P2dmtqn3ZlmWbLnbGBtMMcVgbDqhpMPlJiS5qfxS7gUSkpCEm9zkJpBGEm7avWmEJBB6x2CMce8Nd8lqltXrrrbNnPP7Q7uyysqSVpIt4/k8PDzr3ZkzZ0bzPeU97/seoZTCxsZmIqGd7grY2Nj0x5aljc2Ew5aljc2Ew5aljc2Ew5aljc2Ew5aljc2Ew5aljc2Ew5aljc2Ew5aljc2Ew5aljc2Ew5aljc2Ew5aljc2Ew5aljc2Ew5aljc2Ew5aljc2Ew5aljc2Ew5aljc2Ew5aljc2Ew5aljc2Ew5aljc2EwzjdFbA5mzDx1WMB4MjA4znN1Zmw2LI8A/Dtp6GR9IWkJZ/uqowOeYyVH6XBAkHp91m27HRXaKJiy/JUEKygfCXH9tB2DH8nFjhSSJpE1gKKr2ZS4cnObXuC535CUKEXcfX/MXmkygyx/g4ONgO4l/PBrw/jTx7k7Q9S7gVIuJ4P3IM+wmvajBJbluOLbGD3I+xaRdDq832oHV819Rt59/dkX8eSu8lNj3k+NasJKgCrhop9TL5wxHUw/YR9AFpouKdYXZFTwsERX85m9IxKloeO1B4sOx4IBUCgAAHdyaAFAKrvByU4kSpaCQECJQUieqJSgFAIiXQLYanuE5WKHtBTWr9rDXbRoaokFCi30z2rNH/6tILRPIqYhN5l1deoaujzpdARIHtUatH4Ii/u4rIfM2PKgCI00osR21CAm/QB/WrLS+zZhgKRy6JPkWz3a+8J4pRlZXX9j5/0v35wcpB8aYQ1hC6HMOqaQlgCXUkNZQkR1oQSKiEsBVpU1d26VJqQQhpKWEpTEk2LCGnssTQpUZrpcCrrqukV937IXTIlb6wKl1W8dS9VzZF/umcz5wOUXEB6DpokWEf9Zg49ydEjKLCqeec+PL9lcmr/ciZ9gWXZHG8m40pmTer/q283h15CgTaNOZ/kDJ972kSIR5Y+n/+rv/FuacsLuJudwYzEkGFpSmlDyNKQykBpCkMZ0hQuXWFY4JBKaRoKgUIIpSmhhLAcAaRmSMMhhaWPlzANCywVMsxOZ+urFVltv6///f2BhAT3GBRtsvcHVHZrUpB7J8s/S2JPV6bhKqDoFoqup+whVj+PBVYF637Hbffg7FdUItPuYtoY1MnmjCEeWT77RsXOhlLTIE0LLp3WpAWOKhGSynHyszRNgQzp6RuOFlskGDAvoyLD3So0qaSJ6B7A6s2Bgv0NBX6HTNLFhXkHnTSbms746FIQ0nCZzilraz2dyrWjruiZlUfuuHn26Ev2r2Lnjsjn5BtY8TkSYrZaTqbdR8dRtuwB6HiZI3cyJ3f017c5s4lHlhv3dQnNTAm6v7g08MkP5mnaCAZ+wWDocw+Xb62cbkrz/Onh+z6+uN8BldWNH/u+r9FK0sLh21e4ly65PI4ajggp5W//XvvoqtSwHty0r+uOm0ddosXhpwl0T2nTOP/zg2iyGwdzP86799IlwUf528z+0LiN2m3OEOKRZVunZVi6rsnCzAZNG5mlxOVyfugS9hw1LeV4c2f2R2oaiwqzex8wZXL2ioXvPr1pZkA4/vq2WLI47HAM0Q+PEk3TinObNJFvSL210xr6hKGQdVTsjXxOvoqSzCGOdy5mcnpkDaNpJ+EP9RnHtvyZl/+KBJHBsj8xyYk8xItfps0CkP6IRUtW8NINEaetlNu45TOjv49YmGz9LPuqAZJu4ebPxV47qfg+a94G0ObyLz85WXmBQxx4npo9dDZjCdz5ZJ/HjFvIP7uHDHGZfJTQcAgllRy2xb0XKy6b/vQ7xzdX5TV0Jv3j5fJ7P53d74Dbr8lcvbvreDB5d1nemg1lV10+K55KjgRphYRCw4Eag44qtJPmMAAaky4dxiN2sehhpnkBRHJ/f0gVINCGBHSsbgmaBNsI9GtALEJt0fL8o6r/yVCY7QTaABy+QY+SvsgxWufgRVkc/RnvPNHnRroaaNnFwX8w4ytcetPZu3wXz40L0CXEuy+mrusfWtq158+mT9df31X4gcqGkik5vQ8omZJ31bn7/7Zxpgo5/vFO4pWXSm0oe9LoERJdjM3ose0IZvcng+zhTVST54zEiJpE7mISJECwkqZ6ABLJnYMhABKLRlLd04Ki4XeUVyK7/ykQETs8AD4O/YCQZPnNZ6nTdlyyVOhyVFe99IIpC95o2ViX1dzleXZl41c+ldPvgI9em/n6FtNLcHtlxtqNRy9fMu6WSF2B6jY8jRbv8ehSaQYpiWNQYD+0Ii7/eeRz9Q949VkUaHks+RnZZ07/0lEJGlnXsuBWJs3GBb4jlD/NzpcIWGBR8Qjvnsv8gWu5ZwHx/Bk1haYiLVx8uN2uO64L7PptwBSeVzfnv/+ahqLJfZQ5pTDn5sVl/9yc5A1n/O11ccGioNvtivdqQyOioTTa6GUpCURHbiIF90Rq7VULtZuH0f+E8Y+u2R0WOsX3sOy2E69g0mzO+QaTZ/PSQ3RJ8LLrz8x8YMCK0VlAnL2lpnqPOeLhkgunLH6tfkuFuy3g+PuLLfd+NluIPjK/7dqUV3ZZZtDYVZm/ZkP11VeWjuZyQ6JJhVBj0FsqrJ4ZtxN9IhlVQ5t4ddPprkSUxGu47JYY71/6LZy/jjVrAbpWU/lFpg9wsXjPE09jrqHpSLccVYuqadqtV7U7hN+hjI27s49W1vc7YHJh9tXnNBnKUkp7drUwTXM0lxsChVtKHaWNxVxG9XowE0mVEwlB/mV4Yj5sjWm3RpeUfBzbeUrrNUGIr7cMCSWVEpXVgU2b9w59Ql8U3d2icDkchWnh4w2qvd392NO1V1/aJrCipiSl0KZPNjyODn8o/cjR7Mef2jujxCEA5Ji/7ZU1AaWEkFKoeGzLIyPM5k9xqDH2j2ImNz5M6vi4tmoFFM0axrOTNK7FO57N4MlxLCTXw1EfKFoOIZeedYaf+OaWDqEMS/DPVRc/94ZlCaSmhiEVFfUbF93rEFJTpmFYulAq4fVd097eHdBMTeFC6VJYlhYCj7QcIYelVMIfXy7VLQuZoAAhx8Y4g9Kk0BVhTbc0Qyi0oXyVhkag9TxUixgjCkWola7mgT8AaG2xThkjHAtY9p1hBXatuoEjJ1nbGG9cpOXDEQBfPfLsS6IRlywJ62AJlGZYQoWFQygxrPa92xU92l3qUjkDUgqkJpV0aMotlBDCtIQhhVNTLoeyDMxwWBcKoTyi+0gNpHNM1jIsgaUrpcJKGEKgK6URHm2hGs6EyEfVRUgycMVdOHtJtxvJ6OYE7y00XEmRj+GO01qT00R8g1inLjGUykmuSHJ2SoEUw+stowX0BFjpCoWUQiIEqrvPtaTQFZpQmoalKymFhQij3AoNwgoHYzaKVZoSmsIbSm7oLFZCCDUGZr/ErGigWjNek9x+HbCTS/7JJb2/kbz7/1i3dfRXfu/Q02xJGfcC+RlMfO4Epo7pkOrO25qvvaa/U+uZyKuvbfnlHwrDuoAxmFGlTY2O1v00lTFt3uiLPMtQmIHIR81xNprN4hq0K12Xui6FeK80ZAKlS6FLXagxMLYknktadzEWxzaM41zxPYuFryXy0ZVqy3K45yhNifeY8V+gaUpoY9HQaKVMnhz53PwadePnoXo66LEiqHEz1aoWWqKW6uSis87eQ3yyFCrqUfAeovumxsa+62DmjZHpgapmyxOMQVjKBEHDFXUnDLYOel9Dm696DVMH4ltHY7fpTSdn3nur+R8ecXr5GDKGLLdv3/vcMy2gIZUSAjHE88zJVp/69OJx9aobPrqCsVp2gbTbmPEs+2oA6v+XTTO5+KKTvV4ybr//6B9QWaN0uxrm9UgpgL0A5n7qA0wekMtBVnNoGOar6r9RdwV5CQN+8LH7icgUXxRQPAZB6Wce8S2QoMfqZ+vqOg/sv1DhFEqAGjJGqquzPhw2J4gstV7/HwMSOf8eau+lLQxB9t5P8G4uugXPwKmrj7LfsyOaygBjZNkf3WlRq28jLe3kZI1B3U9O7kKM1zFB1bP9cfI+QW9Ls1nF+q9TM4xVDesQbz7Aim+Tk9LrWx/vPsi+iui1biVnfINtJyhxylJT3Qnc+qE0qUsNTZiRxFknRajxygYSB3q3r+/YFei+mOVf4ZUf47Ogi8M/ovLvFC8lpwR3AipIoIG2wxzbSFvPS5zIOZ8jZSS6TJmNW4tkNthyP4EbSNQIJDP/yrG7k74kXMmU31HWAlD/O547xIwlJCUSbqFlN0ffxjvsHJa+tTz/UYqvZtJMXALfUSpfo7Y28qsxiwvffzZOLIk73tIRaxA7b17RB27feCKypH932T11647WkCCTkjwez8I4KjB82tu87+5tqq7uQGhTpqTOmZuRMkiolWEhxyjesoeM93NjGqsfor4VIFTFob9waJCDjcmc/y3mnzOySxiLmT6FXUcB/LvZvBvAefU4ylKkc8Hd1P0XPgskLW+x8a2+RyQyaRq1u09qPdOZdRe1f6KjifLHKR/wu5bHkgfJHYtsZ2ci8WUnwJBosv9LXFRUWFR00gzhpxDLsl5/9eCqFzKa67OlLFDKoelm1qSya2/mimXTdb1PlyTAkFhizOaWPaRexU3ncugv7HmZ1vbYx3hKKbmB+beSGseeHC4WfYuWr1LdMPSxY0XyDVwvePsXNLT0/ynhHM77d7LW8NzJZSnIuo3zzmXDTzha3vdIQcoSLr6XKfljXvEzBqFGbii474tbGisXC2V95Avbrr7mgvGo1uh57A/vrn65MBxKUBhCgRZCCMuyPIZ+9fsPf/COub0Pfv21zX/71XkILXvK1h89Mj4OEmFadlK3n84WQgE0J840kgrJmkdmwWiHaspL9RvUlROSuLLIvICpc8am1ifDz/G1HD+IrxPhxJ1PzvlMmjHCnREk7Tup3klHI5aGO4/ciyksPUvHrj3EG285oKsEdu8+sPKFuogbOvSbN04qctz+rxfHVckRs3VT9frnimXYqTyWJ0dkFpmWHmyuELIuwQrpq5+ZWjrz6MLzS3qfoivUuK76OMhYTMb4SF4kUXQLpzpViIf8FeSvGF0hGqmLSF00NjV6zxCvJVYh6J/O51h16+GNFyOdIOQAS6z01cRfzZFgmubKp5wq5DH0YFZJaOblRtjtkrpj6kzrwKpQW4Vhhln1nLZgUa8UQarbO3fCGKBszm7idCfQYncsCmkACFMTUkf0/k+oU5RnpqGhpbE6VSpNeALzzkv0uGSSIs0kxa3mXuBAaEhRX5HR0eHtfZY26E3Z2Jxq4u8t1QC75YxZBZd+cB3IaIBIn9+zcxJg0Fl8e7uv/HDrsao2w6EXT0srnpoR93pml88f6nJrmtMQMsdlyHBY6AHNdEvpSk02XZYpTJe/MxQKnYh47q6rpuze0mZCEN/cUmixUvlMm1Y8bVrxSEuTUr7xyoH1z6e11eQKK1/pCiOcO63++n+xFiwqGfr8AbhcTrdDN0NCDxii1UrPVkJJlCUFLQ2ay3KghRxuzTD63Hu3JsVY5Im1sRklcQ5i9TEa71mW9eT/HX3tp6W+igyhAiaapXQtLJt3T3r8gYJ3VpXFUWZ2TkZ6rleYQgSde9e3ObxGUtiTbAndK3auDWj4hbLyJwdSUpJ6ThGgK/Sx8om1sRkd8Xr5SMRYLL5vWFOx6akCTTlCRkCbRHJBUFqGt8I0WrsIJLzyu+TCKXUl00a2uZ3b7Vp8TeurFWnSdNXVqFee8RYUaILQsWq9vSNZM/zoLL663TD6OKpFJsyjviMbm9ETZ55YXTLUfpZDEw6ba59I1ZURNMLZc8XkyxJ8bg1huuYnHnk9GKq2zHb328/Ul9wz4j0nl11femR70+ENeZaV0N6qOluVEC6BEFIp0zV3+b5Lr+ofm6zbJh+bCUOczncaY7CccLSspqMmX5oOd7p/7iJX2OnTNY8QmislMHeRZ3ttSIUT6/elxVGyaVpWe6pTRnaXBoEyEKY7rW3h+1pvun12v90TbJOPzYQiTlkaSolRR923tXYSzNeRCW5fmuEOhRKlMiUYYUdqstJUSFiu9voRRxBIKV99vLZuV7FDoqX4Ft3W4OuQZkhlFobOuSizqHh6zLMMiW4PYm0mBnHLcqhgymHgdjuduhSWFF2a0aU8DmRYk0IZmq+lJclpCXR/YvKIlbJtXfX2f2Y5hGnq4oKP1N54+4zhnGX0+EjY2Jxu4ncnGL3RsmTapOR0n1Npoebk8i3hpKBKl1ZaSHe0JB3ZbBohj1OEp18wsoSEx481vfFouuZzWdKcclnldR8e7p5CmkQbxTZkNjZjSPwmHzXqAV/9sU7DStcUBlTtD3fVhyYXukJWoLJceDs1l9KtYFJislfK4W6kFwyGXvttMFyXblhaYpH/fZ9O6xcpchK0sVv1sbEZJXGHQY/KQKKU2rSq/K1fZqt2TYqgruvCSmyvxVur0IywRDekpcK60Lf/LSekjtx4V8lw9oRe/VRV1dt5mpTCE1z+hebcgqnDrI/ocb6L945sbMaQ+Hfsirtj6fL5X/zfo+XPTNNNLWz40oq8JRdpR9a6/LWJmlQKTRmaO6slvSR0fGe6bjkP/nWK1VZ73edzEpNOFo+4e0vljseyXZbb1MMLbq9ZeNGwppQRVDQsxu4tbSYAccqyO8tWHDOxutqml38i67eWOqU0lZWz0HvdF12FxdmN7299d2tZ9eE2y5STpqbPPT8nJz//9ceqdjye7gykHH6usLO55Zb7wumZKTGL7Wj3vvOrdL1TU5aWc1HdVR8ecZCTQ3Y73434jt6DmPjqI1ntHBl4RhicLb14uwO+NTz5nJW5eAD8xwlLAD2FxBHs9Q1xD2IlOKwRL1zu3Xxs9U8TgpVpBmHLJWd+qPGaT+R7ElxAdk76Fden9zv++o9PzZxUvfkhh/Q7mjakPfHVxmvv75oywOnHNM2Xf9XiL8t1Sl1M8l//xURPwoizTTgtwpo9twSQx1j5URosEJR+n2XLRnZ6x1P881EkkMzyl5g6ITKonXKCbPw4h9sAsj7DLZ8Y2fwozqQhEetIrJc44A9ue7PmyOqEpqMWuswu9c+8Usy7aPLa5yr2/2G6CPqdSLLaFn0mcPF1U4a05Vy4YrLbU/H2T1NVncvck/HqV4NXPlDX0RLc/4aj4VBYyUBuSVJSrl79Wp6w9FBicMmnayZNnhnHPY1yttyHEOvv4OCAPbmEQPfgTCN1KjmLmbqUtNh9v83ZTnyWWCWl0mJlG2moa3n9Ydm4odAwcQldKb2tkg1vy31F4dbqYhHWMYzE6YHL7jGnzx9udMiCS4sT0mtWf98KH0o1a5wvf9WpQl3Cm+YSCi3YctTV5lIeTQSVKrm+csnyWXHcEd0LJCDGKNeq6Sfsi/WDF38j7Yepeo1tP6PoVhbfRUbspF82Zy9xrVsiDCk02d+joMsXePlBvXFNhgNpaTJsSNMRlpqlW6KrTHeZSnObWVfVfODn+vT5k2MXPQjT5xbe+hNH6vldEl11CBFySqf0O6RPd5gepGaivC5P+PwbMkRcbg4iGkSqjXlgl47hOvFf78GB8lL5F579GO/uH+Nr2pzpxNNbdnvDDBT0+qeqfDtLHFrY8milt9XNWebWhDi4xnvgyUytLVkzjbxL62/9ZrHTGY8VICs3dd6dR9fsyXcHXeiOwhubZ94UTkhxlm0MHPxjRrgtgZDY/lR4yv1xlA2gj4WX70BcV3NH751eLbqqqd9K2QtUHECCWc36LxH6MQvnj/W1bc5Y4ppbCqUr1c86EggE61ZPcstQSIgZH2lY8ckp3R1X8cwcw12279dOhyWDDYnhkBmfLIF9bwYM2WUId/YNzdd9LaM7jrmwhKS88vXfmuwKa3Wr81r+rT0jK3XENwS6RGhjsY3eydFJKKakmJLbaHiSVb+kI4RqZ9u3SPsdJeOfE93mjCD+MGijr6u6z+trrURIQ7jNC27J7D2YXHxTvidZOlSwo9rZ3DQgteiwaduWmRB2WVp47k2yd26BeUsKM2f4nGHN6FRHDlTFUbICQylDjj5Ybdho5HyY679Bkg4ga9n4G4adjtzmPU5cG+mpGHZLKaUIS91yaFrYldCnP3S5DF2EnabHFTalFf/uVcIvdMuhE3Im9Km2YegOZ1hTlhbSwoF4dlmPRHWd8uwEKddy6Q2Rx9j5Ku/Gk4zB5j1IvBEkAxxi3B53Wq7S24XsTNz3TsN515xY0D+4pdZqy9XD7sQCf3LKCBdWe5FapMwGzSEdFe8EpvTy4TlW3uQ/lIpUmkflF8Y5EOzOtxCPpkdH4cfJX0mtH0IcfoEFXx4k/XGYxjWUraXhMN42JDjSSC2lYCkzLsd9cs/fIMdXUraexnL8XpQTdyYZc5h8DSVzhpVt2Wqk7DkqttJaS9jCSCN9DsXvY/r8YbTrFk2rOfgm9WV0dSI8JBdTcDmzriPJOdS5AWpXUraOpgq6vODAk0fmOZRcT9GUYVS7mcrXqNxKSxX+LnDiySFjLsXXMWVGrJpb7P0Ptu8HSL6F932O4B72PMGx/XT5cS3ig9/tf0bHFg69xrFDdLWg3CQWRW4t/rcciNtVPRJB0kuZyclJmRfsaz040x107v95guasmnVhrhCU7ajb/lOPEXSGdSt5YVNmdvxJhidd1XF4Z7Iz5Kj5c/qGzCPzlxW43I7Kgw1bH1Y0OnCFXXOai2fEtduCojtp2Kl3J9DyKV1E7TqAjo00h2PsUeVdz/qfUFHd99vuhZZX2DGLJd9h+iDrTb5NvPPfVNX2/fIYzbs5/A/SlnHZf5CfebIaNj/LW7+gpXf6ziY6jlD5EgfvZPlnSBhcmuo4G77Hu3v6bIntq6FuLXv/wcXfZebgET7tq3jnZ9TW9615LU3bOfgYuTdz2d1kDNyHr5swVX9iw+O0912m6jpO8y4O/4Os93HlV0gf4OpgdhJoAzDaaXycN35JV3R4F6joe2gne3/ElpWEe70z3mrq17Hnr1z4zUHvazjEmbs1MuTr++Wij2a/8U67qkx21ibsvD/9yCS/0MK+2iw94BKWIrvjvI+NyuPj3Oty61Y1W5sKjFbPvv/Or/pj0GEEWpuSPO0ej9S8Cd4Fd3YNM9akH91udwMTUp8KNArORVuHBFVNfTM5fb2Y2p7j5R/hjRqjtAQSMxFBfI1YCiB4gLe/BL9h+oB0n75VvPht2nsybxq4UyBAoAsARdubvFLJ8l9QlBGrboq2Z3lpC4GoqoSG6lGYRd2feKeAFTcP0meG2PYV2npaBI3e6gyVseZLqEeZFauhrv8Tr/8af8/xOs4U8BHJImpS/xQvHGbFwxQMNPCFOfBN1q4+cTVHBgmJmO34OiI1b3qGVzq56T9JHmS0ENrGm8+f0GR/utj1NTZv7fO+9Dwcs4r1/4F78H11hyTOBRI91rJ7bmH2wm9U7fwvv16Rk9JlaUeUsJJT0P1GSOR1zLs/OHnaqDYOSklNvuRrwXVfbzb3J3ksjaPJSN3p8OtCBVO9s+7uXHB57MwDw0FXgNJPR8BlwlRcAr8CSVsl9JKluY9VP45oUi/k3LuZGx2ymnUc+A1bXiGskPVsfJTCB/H0XhdtZsNDEU1qOZxzN3OvINEFEu8edj/Kvp1IMI+w9lfc9gAx/RWbNgGkXMrCj1C0AI9BVwUVT7H1GQIWKKr+QsN15MUcjgZpq0WkUHoHs1eQnQ9dtGxj/584+G5kT86NPyTvEdL6asO3kjd/E9Gkls2cf2PeclISQdKxg73/y75tSAju5s3vcvMP+2892PAH1kc1mXI5F36GKdFNTbzb2fowh8oAvG+y+UqWLY+9KhaqIgQihcIryC3B7cbqNYo59j9siWpSL2DeXcy4hNRMrCbq1rD7zxw7jj9WscMkTld1HRkzP8GcC4vSHmnY9X/V3q35vhaXU4UdqaGUxS3zP2ZMiW942ZdJU7OueqR96x8bOtYlW/UyZGnONNM9o23BXXLW+fEkle1B47S5qmuZeDT8Fkj8fQ3VFY/RFAQQ2Sx9lNLcEz8Zecx7AIeXt9cA+N+hspVZvYajXW9R1V2awbk/4vyebZU1khaw5BESv8KmbQDeVVR8vs+5JxAUfJoVH8cVFXzCVObcS6rglSeRoGqpOEjeIIuuIptLHmFOT4BdEtlLyb6YrK+xbh0KQtvZuY4rLj9ximpnyyN4LQCtkCseoXTSiZqnnMeSc8n9Hm+9jAT/Wja+woobe0mrg91PRha6EpZz439GbN2R6y9i6Y8J3kVlKygqX8K/bNBBuHshy/+LggGPRZaz5bmI7I3SPmMNLYvJt1G4lI1fYc/B2MUOh/jjLQdL5VNQnFPwnzlNDS3NDS1KyYzsjJy8sdxdLzMn9Zr7UttbO+qP11umTE1PypuUF9/YtTeRkMsxqeJIcZ+wu5i9Rz5hGg6hGQApyynJHXCixrT3s3UtPglBGg73kVZbeSQKREymaOAwwsXcO9m7A5+EQP9ze0i4iit7abKH/NvIfJpGCyxayiCmLDWm38PsgUGvTmbfR9WdVHWApOIlApef6KvbX6Cse1NAnbnf6KXJHnSm3UfTIXYdAUXV4zReS070RbaO0BxEM0Bn2gf6aLIbkc+cpVQ9iwLrMM0mCbG6epHJku/F0CTQ8DyN3WtZDuZ/I8b4X2Ry4beo/wQN8S55xT+35KQ+MVk5GVk5MecrY0Nqekpq+pg5eveEQZ8eemfc7b1DkYMl/2TJSU/VJpMs8AGSQN/9M/Xo26Y66ArG+FMb53DlfxNUAEmlsStWcBWJsdoqbRKpiTR2AARbB6lcIkUXx35JRB6zl1L9AgpCu6gLUNytS4vylZHWxFjIvHMHKdnD/NvZ/11CCllB+X5you2CvogPrxnkrCipk6M723cSHKR7cZxHcUyjvknVxsjw1VjEnEFcsLXJpHril2U83YOu0CX6qDPfTSi670g/LcqUvWa0I/IkVqkAAAotSURBVEyKLQy0nhP6Vj59Pq7un5rZ9APqB0S0kEjBUkquoOQKske6riQwoh2cjGtZKX9xtKHooDm6mZtq4Xh0a+isS2K3CN0kXEp+dyCoRf2OQcduMdF6Wig1YluCaqcxWtvMxX0m82NIvHPLoXrLMwsRzeVzesKggyec/vTBbdXed6nZRnM1vhbMILL7TTRpHsRa6LqccxaweSdA+0qeW0P2hUxeTMF55E4b4eaw44BRRLJOiwUSbx2UAshKOrqfhUbG9JN2GolkTqLyMEBHFTJmDxOgYRO1+2ivxd+BZUY2zpGNI5Nxb2Qtvu6TBWkl4zXriUeWSli6JTRNOsR7JMTVIVwOqYTUlIjfCSluZFN0BULD0z8UHKDlNTb/gZqjI3yZHCz4AfJBtm9EAkEa19C4hu1gZJF3ISXXUbr4tGUPEKlERtmKYHR1UbVHR5WChJOupqKREH1WodYBT8bLkT+y/VnaOseswhE6CalIBTwnr+EoiM/LxzRMTRkh61BqeLnpcJyijSvHiXDYNA+mGNIUpluMv7P6QLzlkQkegtR+i3gW5Q/x9rMn1qy1JFIKSUhGMxBAmMZtBAbp5EUGi35OyWp2P0nFDoLRNsdsouYlal5i6xwW/Ttz5p+OgY/zxPBb9Tx184TAjJO3+RqiZ9Ngq48s5XHW/Qf7e3kyOnNIycWVEAmss+qpLSc+lDyxV50+bk1aXOuW0lAaKGfXb3PXb66v12osIc7ELDhKQ5cqVxYGd+YJ5VQahjzlTYykdnvkrRL55OT0+bHlcdZENZlyCYv+lZJzcPRenKznpduoPWljkn4FS6/g0haOb6ZuF3V7aCjDlAD+faz7As0PctmVp1qZyo/Z09b0vN8udBH53jy5vcQiHLVaa85e77HJnu9ENemi6KOcewu5+X3uzvt3/v7TOMexwokuItN4a9x8NeN5Cx2WQwNTwxNwO9cW5DkKwmCcgRNNC3SFKww6AZc0LAzrVI/p5DHKdkQ+J15Adu/r+9j998iQKelabvr2yUwgQ6JnUHgthdcChGs4/AQ7nsJnQpADP6JgAaXjaDiPgWrAHx0NuqMbzYgsPBpBCxTeBjhJRlGLjqhfnif7hOpC69mzO1Js6be58qoxbm5EBm6BF5B0NY1p0b2Is3MwpCXQZJLPbyphujUYi90PTjVCoVB+VwBDOPwJujzlE0tJ1R+o6+4WdEpv7PP3sA5wvCX600dGpcl+OAqZ8+8UlvDsDwkoaKFsA6U3jFn5w8F/OGo70UiNLmzrxaS5afOBpGkv8qJBbSqylqaGyOe0Xsahps1R96Bi5i8d+yGAVkCKhyYvKFoOIC8bF6tPXCYfTXksEdDC2j1HPFNEsNs/5UxFc3l0f6WS353ttgx1asfi7S+x9tWIjT7hCubN7vOraoo6hQrcg4R2q3DEM7Yf1g6e/w5dEnRmfZ/z5sQ4JuUaCn5JuRfAVzuIMXM0SMwgxJwiSqrWR4fuBeRkR79PoHAeFZsAWt6i+WN9hw+9aF1JU3cr6mTS4hPy62qMrnmk4B7kfuJb0YngJn825VsAWtbSdhcZg2hIjUIT8ckybEjptISeJc67fEH8F58wbHlll2UJQ1pKP1WhXRZ1f+OtX0ecoUUmi78wwAusZ6Jl0XwICgYUIqn6I409fXwvfYoc9GZ8YYDKtZwbM4DLQvZYL0aYDHZY+NjzGCWfj2HsDe1k79bI55RLemlPo+QGtm4moJBlbHmea98fo7GQx9n2dETVzsVM6+Wjr/esplbT3EVyUv9zVRM7nh1FN6IxZRmbtxAGeYjtb3LVNTH65M5XqRmFETie9jEx1bA0lOXQjmZLeeb2kxGklKI8U0nDFCIxdcgQwNESOk7l07xxFy/+gs7uRiCR+d9hxgAvM30Gmd3VUZT/hsqGPr/KFt59kFUvnHjDrF42Ei2PqVEXmaa/s3XLgBdRcvwv1HSvTOjkzBuXwVjzY7z5t/6eNKFDrP42bd2tiYfZt/RpMjzLmD8XAEXNI6x7i35TC9nApq9R0T28dzDnE32G91mzo6U1s+VRfH1P9u/hrbs5WNNT1lCGpVgkXU1pQeT08h+xZXP/Z9u5mpU/H9Q8Phzi6S1zLk7xrzQTTU39LHXrtuPlrqMI6ZCnfYF6xIQ1idKnhqfoa1KdQnY5rZwlo4xf7U/oLf6xLfoPhdVFoG8EoJbDogdZuChGi9vtoXb8dRRY5ay8k6KryCtBeOk4QuVavH1Dh/zNvQaiOrM+z+Ev0NgFPnZ9mePLKb2EjHx0E18FNSs5si2yHORcxOxxSvBlUfUznnyd0ivJnITw0bqLI2/QGa151keYU9z3FAfn3E/t5znWDgH2f536y5m5jMw88NKyk0PP09TW/YDIvYuFfff1TlpB8V8oawJofYqndjP1ctIzCDXSvIOq3SfMvwASfzOMNPdTEuf9P6q/idcCLzu/TM1Spi4mORWzifoNlG8iNLreKh5Zzru1aO2LNa6tBcIMmW9nF1v5ujhTTT6WJGyEheqQOv5FdeffGn+UdkxUAN9gcXduCq5n8afJjeVCAKAx9cscP8K+cgDZRsVT9InFFWTdhHMVtV6AjjJM6OnujTksf4DXvkeLD0waXqXh1RgXcUxj6QP9Q6vGBG0G505h50q69rF7X4wDkq5k2SdjvIJ6Kcsf4o2vc6wJJC2r2bB64EHk3cmKu/qPkEUmF3+Nlm/SGgAIHGbf4b5HJDJrBeXPEVIgaSk7qb13EBKWcfXdvPIL/BIsmlbRtKrPAa755HdSUTHI+UMRjyw9iZ65P0w98nCLeDXXEXIIPWxplmLch39jjhBhoXQ97Ag6k6wVDfO+mhrHLgkjuR5GAs4M0qaSewElV5I1lJuIyOSSX5P+c7a/hr/v4qSex+xPc961HDlO7RaA0E7qghT1MrEkL+PmYnb8D/vXnfAl6EFLpvAWLhi//NFpzPk2+aWs/wut3r4/eSi6nUvuInkQi45rAdf9gT3/w56VdA2Y73tmMf+zzL84tgthwmXc9Cs2PsSRA/2Hl0nnc/6XKE2l81WOBUBRtwlzRTwyyLqdm/JZ91OO9c2fgJP8m7nkc9TfH78shRpFHvGqw7U1B+pCgS4lGIP9Lk89QgolnG5P4azcoukDI4gmEOHj1GygqZpgEGc6qfMoOh/PsBdZzQZqt9BUSVcHOHCmkTaTgvM46R5oY4bycnw9dYfo8oKb5KlMvoyMwcYIfbGaObaRxqP4veAiIZ+sRUyaMSyf3s49VG+noxFTx5NDzkUUjLkzsEnzBqoP0NWCdJFcwqRLh25th2RUsrSxsRkPzsAuzsbmvY4tSxubCYctSxubCYctSxubCYctSxubCYctSxubCYctSxubCYctSxubCYctSxubCYctSxubCYctSxubCYctSxubCYctSxubCYctSxubCYctSxubCYctSxubCYctSxubCYctSxubCYctSxubCYctSxubCcf/BwLwWhR4xOtHAAAAAElFTkSuQmCC;" vertex="1" parent="WIyWlLk6GJQsqaUBKTNV-1">
          <mxGeometry x="1133.08" y="475" width="155.92" height="60" as="geometry" />
        </mxCell>
      </root>
    </mxGraphModel>
  </diagram>
</mxfile>
